<svg data-name="Layer 1" xmlns="http://www.w3.org/2000/svg" viewBox="0 0 5179.964 4709.058"><path d="M9.418 3654.23q23.543-37.671 75.345-4.71 1177.26 682.816 2561.728 682.814 922.97 0 1822.405-343.762 23.543-9.416 68.282-28.254 44.733-18.839 63.572-28.254 70.636-28.255 110.663 28.254 40.022 56.509-25.9 103.6-84.763 61.22-216.617 141.271-404.983 240.162-904.139 372.016-499.162 131.855-974.775 131.853-734.613 0-1389.172-256.643-654.562-256.642-1172.556-722.84Q0 3706.03 0 3682.483q0-14.128 9.418-28.255zm1417.427-1342.082q0-324.925 160.108-555.67 160.103-230.745 437.942-348.47 254.29-108.306 626.305-155.399 127.144-14.127 414.397-37.672v-80.054q0-301.382-65.927-404.979-98.89-141.272-310.798-141.272H2651.2q-155.4 14.127-268.417 98.89t-145.98 235.453q-18.839 94.18-94.182 108.309l-541.541-65.927q-80.059-18.839-80.054-84.763 0-14.127 4.709-32.963 80.052-419.104 393.206-621.596Q2232.091 23.543 2651.2 0h117.726q536.833 0 838.213 277.834a897.172 897.172 0 0 1 87.117 101.245q40.023 54.157 63.572 96.536 23.543 42.381 42.382 122.435 18.832 80.052 28.254 110.663 9.416 30.607 14.127 131.854 4.705 101.242 4.71 120.08V2100.24q0 122.433 35.317 223.68 35.318 101.243 68.282 145.981 32.959 44.734 108.308 143.626 28.255 42.382 28.255 75.345 0 37.67-37.673 65.927-390.856 339.052-423.815 367.307-56.509 42.381-136.563 9.418-65.931-56.509-115.372-108.309-49.445-51.797-70.636-75.345-21.19-23.543-68.281-91.826-47.093-68.284-65.927-91.827-263.712 287.255-517.996 357.889-160.11 47.093-395.561 47.09-362.602 0-595.696-223.68-233.098-223.683-233.098-633.368zm809.958-94.182q0 183.654 91.826 294.317 91.827 110.665 247.226 110.662 14.127 0 40.027-4.709 25.895-4.711 35.318-4.709 197.78-51.797 306.089-254.289 51.797-89.474 77.699-195.426 25.895-105.954 28.254-171.88 2.353-65.925 2.355-216.617v-117.727q-273.128 0-414.397 37.673-414.4 117.729-414.397 522.705zm1977.804 1516.317q9.416-18.838 28.254-37.672 117.722-80.052 226.035-108.309 178.942-47.093 348.47-51.8 47.087-4.71 89.473 4.71 211.907 18.838 254.289 70.636 18.831 28.254 18.836 84.763v32.963q0 164.815-89.472 388.497-89.475 223.683-249.58 360.243-23.55 18.839-42.382 18.837a41.76 41.76 0 0 1-18.836-4.71q-28.254-14.127-14.127-51.8 174.23-409.687 174.235-569.795 0-51.797-18.836-75.345-47.093-56.509-263.707-56.509-80.059 0-188.363 9.418-117.729 14.128-216.616 28.255-28.255 0-37.673-9.418-9.423-9.416-4.709-18.837 0-4.711 4.71-14.127z"/></svg>