<svg id="Layer_1" data-name="Layer 1" xmlns="http://www.w3.org/2000/svg" viewBox="0 0 104.424 64.813"><defs><style>.cls-1{fill:#a8e00f}</style></defs><path class="cls-1" d="M90.108 37.897A37.895 37.895 0 1 0 24.59 63.828l.002-.002a2.348 2.348 0 0 0 3.317.099l4.085-3.844a2.348 2.348 0 0 0 .108-3.309l.004-.004a27.583 27.583 0 1 1 40.213 0l.01.008a2.345 2.345 0 0 0 .111 3.305l4.086 3.844a2.347 2.347 0 0 0 3.319-.1l-.004-.003a37.748 37.748 0 0 0 10.267-25.925"/><path class="cls-1" d="M104.424 37.715a50.635 50.635 0 0 0-2.303-15.143h.002l-.006-.012-.004-.016a2.353 2.353 0 0 0-2.93-1.518l-5.357 1.665a2.346 2.346 0 0 0-1.547 2.934l-.006.004a40.414 40.414 0 0 1-3.864 32.75l.006.007a2.347 2.347 0 0 0 .815 3.208l4.811 2.885a2.347 2.347 0 0 0 3.22-.805 50.567 50.567 0 0 0 7.163-25.96M16.017 58.38a40.42 40.42 0 0 1-3.865-32.748h.002v-.004a2.35 2.35 0 0 0-1.545-2.936l-5.358-1.669a2.35 2.35 0 0 0-2.93 1.525l-.008-.005a50.723 50.723 0 0 0 4.852 41.132l.008-.004a2.347 2.347 0 0 0 3.212.794l4.81-2.885a2.347 2.347 0 0 0 .819-3.197z"/></svg>