<svg id="Isolation_Mode" data-name="Isolation Mode" xmlns="http://www.w3.org/2000/svg" viewBox="0 0 62.384 62.384"><defs><style>.cls-1{fill:#fff}</style><clipPath id="clip-path"><path class="cls-1" d="M41.511 25.609l4.736-9.473-9.473 4.737-4.736 9.472 9.473-4.736z"/></clipPath><clipPath id="clip-path-2"><path class="cls-1" d="M32.038 32.039l4.736 9.472 9.473 4.737-4.736-9.473-9.473-4.736z"/></clipPath><clipPath id="clip-path-3"><path class="cls-1" d="M16.136 16.136l4.736 9.473 9.473 4.736-4.736-9.472-9.473-4.737z"/></clipPath><clipPath id="clip-path-4"><path class="cls-1" d="M25.609 41.511l4.736-9.472-9.473 4.736-4.736 9.473 9.473-4.737z"/></clipPath><clipPath id="clip-path-5"><path class="cls-1" transform="rotate(-63.435 49.744 23.241)" d="M44.197 17.693h11.095v11.095H44.197z"/></clipPath><clipPath id="clip-path-6"><path class="cls-1" transform="rotate(-26.565 39.143 12.64)" d="M33.595 7.091h11.096v11.096H33.595z"/></clipPath><clipPath id="clip-path-7"><path class="cls-1" transform="rotate(-26.563 49.744 39.143)" d="M44.197 33.595h11.096v11.096H44.197z"/></clipPath><clipPath id="clip-path-8"><path class="cls-1" transform="rotate(-63.435 39.143 49.745)" d="M33.595 44.197h11.096v11.096H33.595z"/></clipPath><clipPath id="clip-path-9"><path class="cls-1" transform="rotate(-26.565 12.64 23.241)" d="M7.092 17.693h11.095v11.095H7.092z"/></clipPath><clipPath id="clip-path-10"><path class="cls-1" transform="rotate(-63.43 23.24 12.64)" d="M17.693 7.092h11.096v11.096H17.693z"/></clipPath><clipPath id="clip-path-11"><path class="cls-1" transform="rotate(-63.437 12.64 39.143)" d="M7.091 33.596h11.096v11.096H7.091z"/></clipPath><clipPath id="clip-path-12"><path class="cls-1" transform="rotate(-26.565 23.24 49.745)" d="M17.693 44.197h11.096v11.096H17.693z"/></clipPath><clipPath id="clip-path-13"><path class="cls-1" d="M41.793 26.315l-8.998 4.498h17.996l-8.998-4.498z"/></clipPath><clipPath id="clip-path-14"><path class="cls-1" d="M31.57 11.593v17.995l4.499-8.998-4.499-8.997z"/></clipPath><clipPath id="clip-path-15"><path class="cls-1" d="M32.795 31.571l8.998 4.499 8.998-4.499H32.795z"/></clipPath><clipPath id="clip-path-16"><path class="cls-1" d="M31.57 32.796v17.995l4.499-8.997-4.499-8.998z"/></clipPath><clipPath id="clip-path-17"><path class="cls-1" d="M20.59 26.315l-8.998 4.498h17.996l-8.998-4.498z"/></clipPath><clipPath id="clip-path-18"><path class="cls-1" d="M30.813 11.593l-4.499 8.997 4.499 8.998V11.593z"/></clipPath><clipPath id="clip-path-19"><path class="cls-1" d="M20.59 36.07l8.998-4.499H11.592l8.998 4.499z"/></clipPath><clipPath id="clip-path-20"><path class="cls-1" d="M30.813 32.796l-4.499 8.998 4.499 8.997V32.796z"/></clipPath></defs><path class="cls-1" d="M57.695 21.437l-4.688 9.376h9.377l-4.689-9.376zm0 19.51l4.689-9.376h-9.377l4.688 9.376zm-5.582 11.166l4.736-9.473-9.472 4.736-4.737 9.473 9.473-4.736zm-20.543.895v9.376l9.376-4.688-9.376-4.688zM4.688 21.437L0 30.814h9.376l-4.688-9.377zm10.319-6.43l4.736-9.473-9.472 4.737-4.737 9.472 9.473-4.736zM4.688 40.947l4.688-9.376H0l4.688 9.376zm.847 1.694l4.737 9.473 9.472 4.736-4.736-9.473-9.473-4.736zm25.278 10.367l-9.376 4.688 9.376 4.688v-9.376zM31.57 0v9.376l9.376-4.688L31.57 0zm-.757 0l-9.377 4.688 9.377 4.688V0zM42.64 5.535l4.736 9.473 9.473 4.736-4.736-9.473-9.473-4.736zm-1.129 20.074l4.736-9.473-9.473 4.737-4.736 9.472 9.473-4.736z"/><g clip-path="url(#clip-path)"><path class="cls-1" transform="rotate(-45 39.143 23.24)" d="M29.096 13.193h20.095v20.095H29.096z"/></g><path class="cls-1" d="M32.038 32.039l4.736 9.472 9.473 4.737-4.736-9.473-9.473-4.736z"/><g clip-path="url(#clip-path-2)"><path class="cls-1" transform="rotate(-45 39.143 39.144)" d="M29.096 29.096h20.095v20.095H29.096z"/></g><path class="cls-1" d="M16.136 16.136l4.736 9.473 9.473 4.736-4.736-9.472-9.473-4.737z"/><g clip-path="url(#clip-path-3)"><path class="cls-1" transform="rotate(-45 23.24 23.24)" d="M13.194 13.193h20.095v20.095H13.194z"/></g><path class="cls-1" d="M25.609 41.511l4.736-9.472-9.473 4.736-4.736 9.473 9.473-4.737z"/><g clip-path="url(#clip-path-4)"><path class="cls-1" transform="rotate(-45 23.24 39.144)" d="M13.194 29.096h20.095v20.095H13.194z"/></g><path class="cls-1" transform="rotate(-63.435 49.744 23.241)" d="M44.197 17.693h11.095v11.095H44.197z"/><g clip-path="url(#clip-path-5)"><path class="cls-1" transform="rotate(-19.3 49.744 23.241)" d="M40.26 13.756h18.969v18.969H40.26z"/></g><path class="cls-1" transform="rotate(-26.565 39.143 12.64)" d="M33.595 7.091h11.096v11.096H33.595z"/><g clip-path="url(#clip-path-6)"><path class="cls-1" transform="rotate(-70.6 39.143 12.64)" d="M29.65 3.146h18.986v18.986H29.65z"/></g><path class="cls-1" transform="rotate(-26.563 49.744 39.143)" d="M44.197 33.595h11.096v11.096H44.197z"/><g clip-path="url(#clip-path-7)"><path class="cls-1" transform="rotate(-70.6 49.744 39.144)" d="M40.251 29.651h18.986v18.986H40.251z"/></g><path class="cls-1" transform="rotate(-63.435 39.143 49.745)" d="M33.595 44.197h11.096v11.096H33.595z"/><g clip-path="url(#clip-path-8)"><path class="cls-1" transform="rotate(-16.7 39.143 49.745)" d="M29.874 40.476h18.537v18.537H29.874z"/></g><path class="cls-1" transform="rotate(-26.565 12.64 23.241)" d="M7.092 17.693h11.095v11.095H7.092z"/><g clip-path="url(#clip-path-9)"><path class="cls-1" transform="rotate(-70.7 12.64 23.241)" d="M3.155 13.756h18.969v18.969H3.155z"/></g><path class="cls-1" transform="rotate(-63.43 23.24 12.64)" d="M17.693 7.092h11.096v11.096H17.693z"/><g clip-path="url(#clip-path-10)"><path class="cls-1" transform="rotate(-18.9 23.24 12.64)" d="M13.788 3.186h18.906v18.906H13.788z"/></g><path class="cls-1" transform="rotate(-63.437 12.64 39.143)" d="M7.091 33.596h11.096v11.096H7.091z"/><g clip-path="url(#clip-path-11)"><path class="cls-1" transform="rotate(-19.1 12.64 39.144)" d="M3.17 29.674h18.938v18.938H3.17z"/></g><path class="cls-1" transform="rotate(-26.565 23.24 49.745)" d="M17.693 44.197h11.096v11.096H17.693z"/><g clip-path="url(#clip-path-12)"><path class="cls-1" transform="rotate(-74.1 23.24 49.745)" d="M14.043 40.547h18.396v18.396H14.043z"/></g><path class="cls-1" d="M41.793 26.315l-8.998 4.498h17.996l-8.998-4.498z"/><g clip-path="url(#clip-path-13)"><path class="cls-1" d="M32.795 26.315h17.996v4.498H32.795z"/></g><path class="cls-1" d="M31.57 11.593v17.995l4.499-8.998-4.499-8.997z"/><g clip-path="url(#clip-path-14)"><path class="cls-1" d="M31.57 11.593h4.499v17.995H31.57z"/></g><path class="cls-1" d="M32.795 31.571l8.998 4.499 8.998-4.499H32.795z"/><g clip-path="url(#clip-path-15)"><path class="cls-1" d="M32.795 31.571h17.996v4.499H32.795z"/></g><path class="cls-1" d="M31.57 32.796v17.995l4.499-8.997-4.499-8.998z"/><g clip-path="url(#clip-path-16)"><path class="cls-1" d="M31.57 32.796h4.499v17.995H31.57z"/></g><path class="cls-1" d="M20.59 26.315l-8.998 4.498h17.996l-8.998-4.498z"/><g clip-path="url(#clip-path-17)"><path class="cls-1" d="M11.592 26.315h17.996v4.498H11.592z"/></g><path class="cls-1" d="M30.813 11.593l-4.499 8.997 4.499 8.998V11.593z"/><g clip-path="url(#clip-path-18)"><path class="cls-1" d="M26.314 11.593h4.499v17.995h-4.499z"/></g><path class="cls-1" d="M20.59 36.07l8.998-4.499H11.592l8.998 4.499z"/><g clip-path="url(#clip-path-19)"><path class="cls-1" d="M11.592 31.571h17.996v4.499H11.592z"/></g><path class="cls-1" d="M30.813 32.796l-4.499 8.998 4.499 8.997V32.796z"/><g clip-path="url(#clip-path-20)"><path class="cls-1" d="M26.314 32.796h4.499v17.995h-4.499z"/></g></svg>