<svg id="Logo" xmlns="http://www.w3.org/2000/svg" viewBox="0 0 503.841 503.841"><defs><style>.cls-1{fill:#fff}</style></defs><path class="cls-1" d="M256 49.47c67.266 0 75.233.257 101.797 1.47 24.562 1.12 37.901 5.224 46.779 8.673a78.052 78.052 0 0 1 28.966 18.845 78.052 78.052 0 0 1 18.845 28.966c3.45 8.877 7.553 22.217 8.674 46.778 1.212 26.565 1.468 34.532 1.468 101.798s-.256 75.233-1.468 101.797c-1.12 24.562-5.225 37.902-8.674 46.779a83.427 83.427 0 0 1-47.811 47.81c-8.878 3.45-22.217 7.554-46.779 8.675-26.56 1.212-34.527 1.468-101.797 1.468s-75.237-.256-101.797-1.468c-24.562-1.12-37.902-5.225-46.779-8.674a78.051 78.051 0 0 1-28.966-18.845 78.053 78.053 0 0 1-18.845-28.966c-3.45-8.877-7.553-22.217-8.674-46.778-1.212-26.565-1.468-34.532-1.468-101.798s.256-75.233 1.468-101.797c1.12-24.562 5.225-37.902 8.674-46.779a78.052 78.052 0 0 1 18.845-28.966 78.053 78.053 0 0 1 28.966-18.845c8.877-3.45 22.217-7.553 46.778-8.674 26.565-1.212 34.532-1.468 101.798-1.468m0-45.392c-68.418 0-76.997.29-103.866 1.516-26.815 1.224-45.127 5.482-61.152 11.71a123.488 123.488 0 0 0-44.62 29.057 123.488 123.488 0 0 0-29.057 44.62c-6.228 16.025-10.486 34.337-11.71 61.152C4.37 179.004 4.08 187.582 4.08 256s.29 76.997 1.516 103.866c1.224 26.815 5.482 45.127 11.71 61.152a123.489 123.489 0 0 0 29.057 44.62 123.486 123.486 0 0 0 44.62 29.057c16.025 6.228 34.337 10.486 61.152 11.71 26.87 1.226 35.448 1.516 103.866 1.516s76.997-.29 103.866-1.516c26.815-1.224 45.127-5.482 61.152-11.71a128.817 128.817 0 0 0 73.677-73.677c6.228-16.025 10.486-34.337 11.71-61.152 1.226-26.87 1.516-35.448 1.516-103.866s-.29-76.997-1.516-103.866c-1.224-26.815-5.482-45.127-11.71-61.152a123.486 123.486 0 0 0-29.057-44.62 123.487 123.487 0 0 0-44.62-29.057c-16.025-6.228-34.337-10.486-61.152-11.71C332.996 4.37 324.418 4.08 256 4.08z" transform="translate(-4.08 -4.08)"/><path class="cls-1" d="M256 126.635A129.365 129.365 0 1 0 385.365 256 129.365 129.365 0 0 0 256 126.635zm0 213.338A83.973 83.973 0 1 1 339.974 256 83.974 83.974 0 0 1 256 339.973z" transform="translate(-4.08 -4.08)"/><circle class="cls-1" cx="386.396" cy="117.445" r="30.23"/></svg>