<svg id="Isolation_Mode" data-name="Isolation Mode" xmlns="http://www.w3.org/2000/svg" viewBox="0 0 115.353 94.756"><defs><style>.cls-1{fill:#fff}</style><clipPath id="clip-path" transform="translate(1.432 37.37)"><path class="cls-1" d="M19.419 7.215l-1.578 3.156h3.156l-1.578-3.156z"/></clipPath><clipPath id="clip-path-2" transform="translate(1.432 37.37)"><path class="cls-1" d="M19.419 13.782l1.578-3.156h-3.156l1.578 3.156z"/></clipPath><clipPath id="clip-path-3" transform="translate(1.432 37.37)"><path class="cls-1" d="M17.539 17.54l1.595-3.188-3.188 1.594-1.595 3.188 3.188-1.594z"/></clipPath><clipPath id="clip-path-4" transform="translate(1.432 37.37)"><path class="cls-1" d="M10.625 17.841v3.156l3.157-1.578-3.157-1.578z"/></clipPath><clipPath id="clip-path-5" transform="translate(1.432 37.37)"><path class="cls-1" d="M1.578 7.215L0 10.371h3.156L1.578 7.215z"/></clipPath><clipPath id="clip-path-6" transform="translate(1.432 37.37)"><path class="cls-1" d="M5.051 5.051l1.594-3.188-3.188 1.594-1.594 3.188 3.188-1.594z"/></clipPath><clipPath id="clip-path-7" transform="translate(1.432 37.37)"><path class="cls-1" d="M1.578 13.782l1.578-3.156H0l1.578 3.156z"/></clipPath><clipPath id="clip-path-8" transform="translate(1.432 37.37)"><path class="cls-1" d="M1.863 14.352l1.594 3.188 3.188 1.594-1.594-3.188-3.188-1.594z"/></clipPath><clipPath id="clip-path-9" transform="translate(1.432 37.37)"><path class="cls-1" d="M10.371 17.841l-3.156 1.578 3.156 1.578v-3.156z"/></clipPath><clipPath id="clip-path-10" transform="translate(1.432 37.37)"><path class="cls-1" d="M10.625 0v3.156l3.157-1.578L10.625 0z"/></clipPath><clipPath id="clip-path-11" transform="translate(1.432 37.37)"><path class="cls-1" d="M10.371 0L7.215 1.578l3.156 1.578V0z"/></clipPath><clipPath id="clip-path-12" transform="translate(1.432 37.37)"><path class="cls-1" d="M14.351 1.863l1.595 3.188 3.188 1.594-1.595-3.188-3.188-1.594z"/></clipPath><clipPath id="clip-path-13" transform="translate(1.432 37.37)"><path class="cls-1" d="M13.971 8.619l1.595-3.188-3.189 1.594-1.594 3.188 3.188-1.594z"/></clipPath><clipPath id="clip-path-14" transform="translate(1.432 37.37)"><path class="cls-1" d="M10.783 10.783l1.594 3.189 3.189 1.594-1.595-3.189-3.188-1.594z"/></clipPath><clipPath id="clip-path-15" transform="translate(1.432 37.37)"><path class="cls-1" d="M5.431 5.431l1.594 3.188 3.188 1.594-1.594-3.188-3.188-1.594z"/></clipPath><clipPath id="clip-path-16" transform="translate(1.432 37.37)"><path class="cls-1" d="M8.619 13.972l1.594-3.189-3.188 1.594-1.594 3.189 3.188-1.594z"/></clipPath><clipPath id="clip-path-17" transform="translate(1.432 37.37)"><path class="cls-1" transform="rotate(-63.438 16.743 7.822)" d="M14.876 5.955h3.734v3.734h-3.734z"/></clipPath><clipPath id="clip-path-18" transform="translate(1.432 37.37)"><path class="cls-1" transform="rotate(-26.558 13.174 4.254)" d="M11.307 2.387h3.734v3.734h-3.734z"/></clipPath><clipPath id="clip-path-19" transform="translate(1.432 37.37)"><path class="cls-1" transform="rotate(-26.565 16.743 13.175)" d="M14.875 11.307h3.734v3.735h-3.734z"/></clipPath><clipPath id="clip-path-20" transform="translate(1.432 37.37)"><path class="cls-1" transform="rotate(-63.435 13.174 16.743)" d="M11.307 14.876h3.735v3.734h-3.735z"/></clipPath><clipPath id="clip-path-21" transform="translate(1.432 37.37)"><path class="cls-1" transform="rotate(-26.569 4.254 7.822)" d="M2.387 5.955h3.735v3.734H2.387z"/></clipPath><clipPath id="clip-path-22" transform="translate(1.432 37.37)"><path class="cls-1" transform="rotate(-63.435 7.822 4.254)" d="M5.955 2.387h3.734v3.735H5.955z"/></clipPath><clipPath id="clip-path-23" transform="translate(1.432 37.37)"><path class="cls-1" transform="rotate(-63.435 4.254 13.175)" d="M2.387 11.307h3.735v3.735H2.387z"/></clipPath><clipPath id="clip-path-24" transform="translate(1.432 37.37)"><path class="cls-1" transform="rotate(-26.565 7.822 16.743)" d="M5.955 14.875H9.69v3.735H5.955z"/></clipPath><clipPath id="clip-path-25" transform="translate(1.432 37.37)"><path class="cls-1" d="M14.067 8.857l-3.029 1.514h6.057l-3.028-1.514z"/></clipPath><clipPath id="clip-path-26" transform="translate(1.432 37.37)"><path class="cls-1" d="M10.625 3.902v6.057L12.14 6.93l-1.515-3.028z"/></clipPath><clipPath id="clip-path-27" transform="translate(1.432 37.37)"><path class="cls-1" d="M11.038 10.626l3.029 1.514 3.028-1.514h-6.057z"/></clipPath><clipPath id="clip-path-28" transform="translate(1.432 37.37)"><path class="cls-1" d="M10.625 11.038v6.057l1.515-3.028-1.515-3.029z"/></clipPath><clipPath id="clip-path-29" transform="translate(1.432 37.37)"><path class="cls-1" d="M6.93 8.857l-3.028 1.514h6.056L6.93 8.857z"/></clipPath><clipPath id="clip-path-30" transform="translate(1.432 37.37)"><path class="cls-1" d="M10.371 3.902L8.857 6.93l1.514 3.029V3.902z"/></clipPath><clipPath id="clip-path-31" transform="translate(1.432 37.37)"><path class="cls-1" d="M6.93 12.14l3.028-1.514H3.902L6.93 12.14z"/></clipPath><clipPath id="clip-path-32" transform="translate(1.432 37.37)"><path class="cls-1" d="M10.371 11.038l-1.514 3.029 1.514 3.028v-6.057z"/></clipPath><clipPath id="clip-path-33" transform="translate(1.432 37.37)"><path class="cls-1" d="M32.945 18.653l.39.885h-.798zm-.019-1.67l-1.73 3.73a.042.042 0 0 0 .002.042.041.041 0 0 0 .036.02h.703a.044.044 0 0 0 .04-.024l.226-.486h1.453l.216.485a.043.043 0 0 0 .04.025h.697a.042.042 0 0 0 .035-.02.04.04 0 0 0 .003-.04l-1.644-3.732a.043.043 0 0 0-.039-.025.04.04 0 0 0-.038.025m20.447 2.148h.57a1.312 1.312 0 0 1 .522.087.49.49 0 0 1 .2.15.346.346 0 0 1 .08.224.386.386 0 0 1-.15.297.696.696 0 0 1-.482.166h-.74zm0-1.447h.48a.575.575 0 0 1 .413.13.308.308 0 0 1 .111.24.282.282 0 0 1-.055.167.443.443 0 0 1-.163.135.515.515 0 0 1-.129.037 1.207 1.207 0 0 1-.195.01h-.462zm-.683-.726a.042.042 0 0 0-.043.042v3.733a.042.042 0 0 0 .043.042h1.423a1.568 1.568 0 0 0 .53-.09 1.31 1.31 0 0 0 .44-.261 1.176 1.176 0 0 0 .282-.383 1.057 1.057 0 0 0-.129-1.11 1.297 1.297 0 0 0-.322-.29.18.18 0 0 0 .017-.03.978.978 0 0 0 .171-.556 1.005 1.005 0 0 0-.09-.42 1.113 1.113 0 0 0-.258-.354 1.302 1.302 0 0 0-.902-.323zm4.991 0a.042.042 0 0 0-.043.042v3.733a.042.042 0 0 0 .043.042h.641a.042.042 0 0 0 .042-.042V17a.042.042 0 0 0-.042-.042zm11.833 2.173h.57a1.324 1.324 0 0 1 .523.087.49.49 0 0 1 .198.15.348.348 0 0 1 .082.224.39.39 0 0 1-.15.297h-.002a.688.688 0 0 1-.48.166h-.74zm0-1.447h.48a.577.577 0 0 1 .413.13.308.308 0 0 1 .111.24.284.284 0 0 1-.054.167.455.455 0 0 1-.164.135.528.528 0 0 1-.129.037 1.216 1.216 0 0 1-.195.01h-.462zm-.684-.726a.042.042 0 0 0-.042.042v3.733a.042.042 0 0 0 .042.042h1.424a1.587 1.587 0 0 0 .531-.09 1.316 1.316 0 0 0 .44-.261 1.193 1.193 0 0 0 .282-.383 1.079 1.079 0 0 0 .1-.45 1.065 1.065 0 0 0-.23-.66 1.272 1.272 0 0 0-.32-.29.287.287 0 0 0 .015-.03.975.975 0 0 0 .172-.556 1.019 1.019 0 0 0-.092-.42 1.125 1.125 0 0 0-.256-.354 1.306 1.306 0 0 0-.903-.323zm12.977 0a.042.042 0 0 0-.042.042v2.274a.874.874 0 0 1-.059.316.783.783 0 0 1-.173.262.772.772 0 0 1-1.114-.001.753.753 0 0 1-.17-.261.83.83 0 0 1-.06-.316V17a.042.042 0 0 0-.044-.042h-.64a.042.042 0 0 0-.043.042v2.274a1.536 1.536 0 0 0 .443 1.085 1.457 1.457 0 0 0 .488.333 1.513 1.513 0 0 0 1.167 0 1.555 1.555 0 0 0 .494-.333 1.643 1.643 0 0 0 .323-.501 1.534 1.534 0 0 0 .113-.584V17a.042.042 0 0 0-.042-.042zm2.802 0a.043.043 0 0 0-.043.042v.64a.043.043 0 0 0 .043.044h1.075v3.049a.042.042 0 0 0 .042.042h.635a.043.043 0 0 0 .044-.042v-3.05h1.08a.043.043 0 0 0 .042-.042V17a.042.042 0 0 0-.043-.042zm5.098 0a.042.042 0 0 0-.042.042v3.733a.042.042 0 0 0 .042.042h.641a.042.042 0 0 0 .043-.042V17a.042.042 0 0 0-.043-.042zm11.315 0a.043.043 0 0 0-.043.042v2.274a.842.842 0 0 1-.059.316.785.785 0 0 1-.172.262.751.751 0 0 1-.253.175.765.765 0 0 1-.3.062.797.797 0 0 1-.732-.5.83.83 0 0 1-.06-.315V17a.042.042 0 0 0-.042-.042h-.642a.042.042 0 0 0-.042.042v2.274a1.548 1.548 0 0 0 .443 1.085 1.472 1.472 0 0 0 .488.333 1.513 1.513 0 0 0 1.167 0 1.55 1.55 0 0 0 .494-.333 1.655 1.655 0 0 0 .323-.501 1.534 1.534 0 0 0 .113-.584V17a.042.042 0 0 0-.042-.042zm2.99 0a.043.043 0 0 0-.044.042v3.733a.043.043 0 0 0 .043.042h2.36a.042.042 0 0 0 .042-.042v-.636a.042.042 0 0 0-.043-.042h-1.676v-.828h1.251a.043.043 0 0 0 .043-.043v-.641a.042.042 0 0 0-.043-.042h-1.25v-.817h1.675a.043.043 0 0 0 .043-.043V17a.043.043 0 0 0-.043-.042zm-55.123 1.695l.39.885h-.8zm-.02-1.67l-1.73 3.73a.043.043 0 0 0 .038.062h.703a.046.046 0 0 0 .04-.024l.225-.486H49.6l.216.485a.043.043 0 0 0 .04.025h.696a.042.042 0 0 0 .04-.06l-1.645-3.732a.044.044 0 0 0-.039-.025h-.005a.04.04 0 0 0-.034.025m25.976 2.94a1.233 1.233 0 0 1 0-2.115 1.204 1.204 0 0 1 1.21 0 1.229 1.229 0 0 1 0 2.116 1.192 1.192 0 0 1-1.21 0m-.36-2.74a1.955 1.955 0 0 0-.705.708 1.95 1.95 0 0 0 0 1.949 1.955 1.955 0 0 0 .704.707 1.918 1.918 0 0 0 1.932 0 1.955 1.955 0 0 0 .704-.707 1.95 1.95 0 0 0 0-1.95 1.948 1.948 0 0 0-.704-.706 1.918 1.918 0 0 0-1.932 0m19.403 2.739a1.227 1.227 0 0 1 0-2.116 1.195 1.195 0 0 1 .61-.163 1.174 1.174 0 0 1 .603.163 1.23 1.23 0 0 1 .421 1.698l-.808-.867a.042.042 0 0 0-.059-.003l-.472.438a.044.044 0 0 0-.013.03.041.041 0 0 0 .012.03l.794.849a1.137 1.137 0 0 1-.479.106 1.187 1.187 0 0 1-.609-.165m-.358-2.74a1.956 1.956 0 0 0-.704.708 1.95 1.95 0 0 0 0 1.949 1.963 1.963 0 0 0 .704.707 1.915 1.915 0 0 0 1.957-.016l.22.229a.043.043 0 0 0 .032.014h.873a.043.043 0 0 0 .031-.071l-.616-.655a2.073 2.073 0 0 0 .285-.536 1.948 1.948 0 0 0-.85-2.328 1.918 1.918 0 0 0-1.932 0M26.9 17.179a1.935 1.935 0 0 0-.7.708 1.968 1.968 0 0 0 0 1.948 1.956 1.956 0 0 0 .7.71 1.866 1.866 0 0 0 .966.264 1.925 1.925 0 0 0 1.502-.725.044.044 0 0 0-.006-.06l-.5-.397a.042.042 0 0 0-.059.007 1.259 1.259 0 0 1-.42.334 1.142 1.142 0 0 1-.517.12 1.165 1.165 0 0 1-.602-.166 1.236 1.236 0 0 1-.44-1.673 1.21 1.21 0 0 1 .437-.446 1.183 1.183 0 0 1 1.09-.06 1.208 1.208 0 0 1 .408.296.043.043 0 0 0 .06.002l.471-.424a.044.044 0 0 0 .003-.061 1.865 1.865 0 0 0-.647-.472 1.91 1.91 0 0 0-.78-.166 1.882 1.882 0 0 0-.966.26m34.606-.187a1.525 1.525 0 0 0-.453.225 1.233 1.233 0 0 0-.338.385.966.966 0 0 0-.12.466 1.021 1.021 0 0 0 .176.573 1.175 1.175 0 0 0 .494.412 2.326 2.326 0 0 0 .716.169 1.705 1.705 0 0 1 .518.114.577.577 0 0 1 .185.153.287.287 0 0 1 .065.173.349.349 0 0 1-.169.265.883.883 0 0 1-.25.119 1.044 1.044 0 0 1-.595 0 .853.853 0 0 1-.252-.12.47.47 0 0 1-.115-.11.246.246 0 0 1-.054-.14.046.046 0 0 0-.022-.035.045.045 0 0 0-.04 0l-.569.324a.04.04 0 0 0-.018.05 1.068 1.068 0 0 0 .388.497 1.525 1.525 0 0 0 .453.225 1.788 1.788 0 0 0 1.051 0 1.513 1.513 0 0 0 .453-.225 1.194 1.194 0 0 0 .344-.385.96.96 0 0 0-.048-1.011 1.299 1.299 0 0 0-.46-.416 2.386 2.386 0 0 0-.763-.192 9.32 9.32 0 0 1-.288-.045.976.976 0 0 1-.207-.06.469.469 0 0 1-.203-.148.31.31 0 0 1-.07-.187.349.349 0 0 1 .17-.266.871.871 0 0 1 .25-.12 1.053 1.053 0 0 1 .594 0 .89.89 0 0 1 .25.119.358.358 0 0 1 .17.263.042.042 0 0 0 .022.035.045.045 0 0 0 .042 0l.572-.33a.042.042 0 0 0 .02-.051 1.12 1.12 0 0 0-.395-.502 1.535 1.535 0 0 0-.453-.224 1.81 1.81 0 0 0-1.05 0m-24.77-.086a.04.04 0 0 0-.026.039v3.789a.042.042 0 0 0 .042.042h.636a.042.042 0 0 0 .042-.042v-2.115l2.23 2.23a.042.042 0 0 0 .03.012l.017-.003a.045.045 0 0 0 .026-.04V17a.042.042 0 0 0-.043-.042h-.634a.043.043 0 0 0-.044.042v2.144l-2.23-2.23a.041.041 0 0 0-.029-.013.033.033 0 0 0-.017.004m5.35 0a.041.041 0 0 0-.028.039v3.789a.043.043 0 0 0 .043.042h.635a.042.042 0 0 0 .043-.042v-2.115l2.23 2.23a.042.042 0 0 0 .03.012l.016-.003a.044.044 0 0 0 .026-.04V17a.042.042 0 0 0-.042-.042h-.636a.042.042 0 0 0-.042.042v2.144l-2.23-2.23a.043.043 0 0 0-.03-.013.032.032 0 0 0-.016.004"/></clipPath><clipPath id="clip-path-34" transform="translate(1.432 37.37)"><path class="cls-1" d="M80.438 10.957a2.088 2.088 0 0 0 1.21-1.607 2.237 2.237 0 0 0-.675-1.78 4.475 4.475 0 0 0-2.73-1.003c-1.746-.173-3.733-1.054-3.543-2.972a2.262 2.262 0 0 1 1.313-1.746 4.619 4.619 0 0 1 2.23-.518c.189 0 .38 0 .553.017a5.027 5.027 0 0 1 2.28.76l-.172.104a4.89 4.89 0 0 0-2.126-.674 5.205 5.205 0 0 0-.536-.035 4.504 4.504 0 0 0-2.143.502 2.152 2.152 0 0 0-1.227 1.607c-.138 1.468 1.193 2.558 3.388 2.765 1.866.19 3.75 1.054 3.578 2.99a2.367 2.367 0 0 1-1.314 1.763 4.92 4.92 0 0 1-2.264.518c-.173 0-.363-.016-.536-.034a5.401 5.401 0 0 1-2.28-.743l.172-.121a4.939 4.939 0 0 0 2.644.708 4.55 4.55 0 0 0 2.178-.501M75.373.692a3.57 3.57 0 0 0-1.987 2.782c-.225 2.333 1.677 4.113 4.735 4.424 2.162.208 2.247 1.072 2.213 1.33-.017.19-.225.398-.536.571a3.423 3.423 0 0 1-1.936.328 2.887 2.887 0 0 1-2.125-1.02l-2.368 1.539a5.602 5.602 0 0 0 4.234 2.282c.225.017.45.034.657.034a6.235 6.235 0 0 0 2.886-.674 3.663 3.663 0 0 0 2.005-2.783c.224-2.402-1.642-4.13-4.736-4.425-.829-.085-2.316-.466-2.23-1.347.018-.173.226-.398.537-.57a3.457 3.457 0 0 1 1.935-.311 2.973 2.973 0 0 1 2.144 1.002l2.35-1.538A5.618 5.618 0 0 0 78.934.035a7.258 7.258 0 0 0-.68-.032 5.983 5.983 0 0 0-2.88.689m-48.321.674h.172v10.057h6.326v.191h-6.498zM25.704 0v12.962H34.9v-2.886h-6.326V0zm17.853 10.37a4.224 4.224 0 0 0 .985-2.8V1.089h.155v6.48a4.305 4.305 0 0 1-1.037 2.904 3.662 3.662 0 0 1-2.816 1.054 3.918 3.918 0 0 1-2.886-1.054 4.276 4.276 0 0 1-1.09-2.834v-6.55h.156v6.55a4.256 4.256 0 0 0 1.037 2.73 3.72 3.72 0 0 0 2.783 1.02 3.556 3.556 0 0 0 2.713-1.02M43.125 0v7.708a2.733 2.733 0 0 1-.622 1.797 2.271 2.271 0 0 1-1.712.57 2.095 2.095 0 0 1-2.125-1.036 3.01 3.01 0 0 1-.328-1.279V0H35.45v7.725a5.62 5.62 0 0 0 1.487 3.768 5.156 5.156 0 0 0 3.853 1.469 5.13 5.13 0 0 0 3.82-1.469 5.742 5.742 0 0 0 1.4-3.888V0zm5.219 6.48a5.161 5.161 0 0 1 7.967-4.337l-.138.121a4.986 4.986 0 1 0 0 8.416l.138.139a5.307 5.307 0 0 1-2.816.813 5.142 5.142 0 0 1-5.151-5.151m-1.33 0a6.485 6.485 0 0 0 11.285 4.356l-2.074-1.885a3.794 3.794 0 0 1-2.73 1.193 3.664 3.664 0 0 1 0-7.328 3.727 3.727 0 0 1 2.73 1.193l2.074-1.884A6.485 6.485 0 0 0 47.013 6.48m21.569-5.133h.19l-3.854 5.185v5.081h-.173v-5.08L61.41 1.347h.19l3.23 5.013zM67.908 0l-2.99 4.01L62.325 0h-3.422l4.511 6.948v6.014h2.87V6.999L71.484 0zM91.36 1.313h.294l-4.131 4.321 5.686 6.014h-.276l-5.548-5.84-1.988 2.073v3.767h-.138v-10.3h.138v6.24zM90.789 0l-3.404 3.595-.675.708V.017h-2.764v12.945h2.764V8.416l.675-.708 4.995 5.254h3.888l-6.93-7.328L94.712 0zm14.345 1.348h.19l-3.854 5.185v5.081h-.173v-5.08L97.96 1.347h.19l3.233 5.012zM104.459 0l-2.99 4.01L98.879 0h-3.422l4.51 6.948v6.014h2.87V6.999L108.036 0z"/></clipPath></defs><path class="cls-1" d="M20.851 44.585l-1.578 3.156h3.156l-1.578-3.156z"/><g clip-path="url(#clip-path)"><path class="cls-1" transform="rotate(-57.4 54.264 26.17)" d="M17.239 6.614h4.359v4.359h-4.359z"/></g><path class="cls-1" d="M20.851 51.152l1.578-3.156h-3.156l1.578 3.156z"/><g clip-path="url(#clip-path-2)"><path class="cls-1" transform="rotate(-57.4 54.264 29.58)" d="M17.239 10.024h4.359v4.359h-4.359z"/></g><path class="cls-1" d="M18.972 54.91l1.594-3.188-3.188 1.594-1.594 3.188 3.188-1.594z"/><g clip-path="url(#clip-path-3)"><path class="cls-1" transform="rotate(-57.4 51.588 34.12)" d="M13.44 13.44h6.605v6.605H13.44z"/></g><path class="cls-1" d="M12.058 55.211v3.156l3.156-1.578-3.156-1.578z"/><g clip-path="url(#clip-path-4)"><path class="cls-1" transform="rotate(-57.4 47.049 36.796)" d="M10.024 17.239h4.359v4.359h-4.359z"/></g><path class="cls-1" d="M3.01 44.585l-1.578 3.156h3.156L3.01 44.585z"/><g clip-path="url(#clip-path-5)"><path class="cls-1" transform="rotate(-57.4 36.423 26.17)" d="M-.602 6.614h4.359v4.359H-.602z"/></g><path class="cls-1" d="M6.483 42.421l1.595-3.188-3.189 1.594-1.594 3.189 3.188-1.595z"/><g clip-path="url(#clip-path-6)"><path class="cls-1" transform="rotate(-57.4 39.1 21.631)" d="M.951.951h6.606v6.606H.951z"/></g><path class="cls-1" d="M3.01 51.152l1.578-3.156H1.432l1.578 3.156z"/><g clip-path="url(#clip-path-7)"><path class="cls-1" transform="rotate(-57.4 36.423 29.58)" d="M-.602 10.024h4.359v4.359H-.602z"/></g><path class="cls-1" d="M3.295 51.722l1.594 3.188 3.189 1.594-1.595-3.188-3.188-1.594z"/><g clip-path="url(#clip-path-8)"><path class="cls-1" transform="rotate(-57.4 39.1 34.12)" d="M.952 13.44h6.605v6.605H.952z"/></g><path class="cls-1" d="M11.803 55.211l-3.156 1.578 3.156 1.578v-3.156z"/><g clip-path="url(#clip-path-9)"><path class="cls-1" transform="rotate(-57.4 43.638 36.796)" d="M6.614 17.239h4.359v4.359H6.614z"/></g><path class="cls-1" d="M12.058 37.37v3.156l3.156-1.578-3.156-1.578z"/><g clip-path="url(#clip-path-10)"><path class="cls-1" transform="rotate(-57.4 47.049 18.955)" d="M10.024-.602h4.359v4.359h-4.359z"/></g><path class="cls-1" d="M11.803 37.37l-3.156 1.578 3.156 1.578V37.37z"/><g clip-path="url(#clip-path-11)"><path class="cls-1" transform="rotate(-57.4 43.638 18.955)" d="M6.614-.602h4.359v4.359H6.614z"/></g><path class="cls-1" d="M15.784 39.233l1.594 3.188 3.188 1.595-1.594-3.189-3.188-1.594z"/><g clip-path="url(#clip-path-12)"><path class="cls-1" transform="rotate(-57.4 51.588 21.631)" d="M13.44.951h6.606v6.606H13.44z"/></g><path class="cls-1" d="M15.404 45.989l1.594-3.188-3.188 1.595-1.594 3.188 3.188-1.595z"/><g clip-path="url(#clip-path-13)"><path class="cls-1" transform="rotate(-57.4 48.02 25.2)" d="M9.872 4.519h6.606v6.606H9.872z"/></g><path class="cls-1" d="M12.216 48.153l1.594 3.189 3.188 1.594-1.594-3.188-3.188-1.595z"/><g clip-path="url(#clip-path-14)"><path class="cls-1" transform="rotate(-57.4 48.02 30.551)" d="M9.872 9.872h6.606v6.606H9.872z"/></g><path class="cls-1" d="M6.863 42.801l1.594 3.188 3.189 1.595-1.594-3.188-3.189-1.595z"/><g clip-path="url(#clip-path-15)"><path class="cls-1" transform="rotate(-57.4 42.667 25.2)" d="M4.519 4.519h6.606v6.606H4.519z"/></g><path class="cls-1" d="M10.052 51.342l1.594-3.189-3.189 1.595-1.594 3.188 3.189-1.594z"/><g clip-path="url(#clip-path-16)"><path class="cls-1" transform="rotate(-57.4 42.667 30.551)" d="M4.519 9.872h6.606v6.606H4.519z"/></g><path class="cls-1" transform="rotate(-63.438 47.69 25.349)" d="M14.876 5.955h3.734v3.734h-3.734z"/><g clip-path="url(#clip-path-17)"><path class="cls-1" transform="rotate(-57.4 51.588 25.2)" d="M13.282 4.362h6.92v6.92h-6.92z"/></g><path class="cls-1" transform="rotate(-26.558 93.063 19.905)" d="M11.307 2.387h3.734v3.734h-3.734z"/><g clip-path="url(#clip-path-18)"><path class="cls-1" transform="rotate(-57.4 48.02 21.631)" d="M9.714.794h6.92v6.92h-6.92z"/></g><path class="cls-1" transform="rotate(-26.565 96.61 28.826)" d="M14.875 11.307h3.734v3.735h-3.734z"/><g clip-path="url(#clip-path-19)"><path class="cls-1" transform="rotate(-57.4 51.588 30.552)" d="M13.282 9.714h6.92v6.92h-6.92z"/></g><path class="cls-1" transform="rotate(-63.435 44.124 34.27)" d="M11.307 14.876h3.735v3.734h-3.735z"/><g clip-path="url(#clip-path-20)"><path class="cls-1" transform="rotate(-57.4 48.02 34.12)" d="M9.714 13.283h6.92v6.92h-6.92z"/></g><path class="cls-1" transform="rotate(-26.569 84.11 23.474)" d="M2.387 5.955h3.735v3.734H2.387z"/><g clip-path="url(#clip-path-21)"><path class="cls-1" transform="rotate(-57.4 39.1 25.2)" d="M.794 4.362h6.92v6.921H.794z"/></g><path class="cls-1" transform="rotate(-63.435 38.771 21.78)" d="M5.955 2.387h3.734v3.735H5.955z"/><g clip-path="url(#clip-path-22)"><path class="cls-1" transform="rotate(-57.4 42.667 21.631)" d="M4.362.794h6.92v6.921h-6.92z"/></g><path class="cls-1" transform="rotate(-63.435 35.203 30.701)" d="M2.387 11.307h3.735v3.735H2.387z"/><g clip-path="url(#clip-path-23)"><path class="cls-1" transform="rotate(-57.4 39.1 30.552)" d="M.794 9.714h6.921v6.921H.794z"/></g><path class="cls-1" transform="rotate(-26.565 87.69 32.394)" d="M5.955 14.875H9.69v3.735H5.955z"/><g clip-path="url(#clip-path-24)"><path class="cls-1" transform="rotate(-57.4 42.667 34.12)" d="M4.362 13.282h6.921v6.921H4.362z"/></g><path class="cls-1" d="M15.499 46.227l-3.029 1.514h6.057l-3.028-1.514z"/><g clip-path="url(#clip-path-25)"><path class="cls-1" transform="rotate(-57.4 48.911 26.99)" d="M11.797 6.655h4.539v5.918h-4.539z"/></g><path class="cls-1" d="M12.058 41.272v6.057l1.514-3.029-1.514-3.028z"/><g clip-path="url(#clip-path-26)"><path class="cls-1" transform="rotate(-57.4 46.228 24.307)" d="M8.423 4.661h5.919V9.2H8.423z"/></g><path class="cls-1" d="M12.47 47.996l3.029 1.514 3.028-1.514H12.47z"/><g clip-path="url(#clip-path-27)"><path class="cls-1" transform="rotate(-57.4 48.911 28.76)" d="M11.797 8.424h4.539v5.918h-4.539z"/></g><path class="cls-1" d="M12.058 48.409v6.056l1.514-3.028-1.514-3.028z"/><g clip-path="url(#clip-path-28)"><path class="cls-1" transform="rotate(-57.4 46.228 31.444)" d="M8.423 11.797h5.918v4.539H8.423z"/></g><path class="cls-1" d="M8.362 46.227l-3.028 1.514h6.057l-3.029-1.514z"/><g clip-path="url(#clip-path-29)"><path class="cls-1" transform="rotate(-57.4 41.775 26.99)" d="M4.661 6.655H9.2v5.918H4.661z"/></g><path class="cls-1" d="M11.803 41.272L10.289 44.3l1.514 3.029v-6.057z"/><g clip-path="url(#clip-path-30)"><path class="cls-1" transform="rotate(-57.4 44.459 24.307)" d="M6.655 4.661h5.919V9.2H6.655z"/></g><path class="cls-1" d="M8.362 49.51l3.029-1.514H5.334l3.028 1.514z"/><g clip-path="url(#clip-path-31)"><path class="cls-1" transform="rotate(-57.4 41.775 28.76)" d="M4.661 8.424H9.2v5.918H4.661z"/></g><path class="cls-1" d="M11.803 48.409l-1.514 3.028 1.514 3.028v-6.056z"/><g clip-path="url(#clip-path-32)"><path class="cls-1" transform="rotate(-57.4 44.459 31.444)" d="M6.655 11.797h5.918v4.539H6.655z"/></g><path class="cls-1" d="M32.945 18.653l.39.885h-.798zm-.019-1.67l-1.73 3.73a.042.042 0 0 0 .002.042.041.041 0 0 0 .036.02h.703a.044.044 0 0 0 .04-.024l.226-.486h1.453l.216.485a.043.043 0 0 0 .04.025h.697a.042.042 0 0 0 .035-.02.04.04 0 0 0 .003-.04l-1.644-3.732a.043.043 0 0 0-.039-.025.04.04 0 0 0-.038.025m20.447 2.148h.57a1.312 1.312 0 0 1 .522.087.49.49 0 0 1 .2.15.346.346 0 0 1 .08.224.386.386 0 0 1-.15.297.696.696 0 0 1-.482.166h-.74zm0-1.447h.48a.575.575 0 0 1 .413.13.308.308 0 0 1 .111.24.282.282 0 0 1-.055.167.443.443 0 0 1-.163.135.515.515 0 0 1-.129.037 1.207 1.207 0 0 1-.195.01h-.462zm-.683-.726a.042.042 0 0 0-.043.042v3.733a.042.042 0 0 0 .043.042h1.423a1.568 1.568 0 0 0 .53-.09 1.31 1.31 0 0 0 .44-.261 1.176 1.176 0 0 0 .282-.383 1.057 1.057 0 0 0-.129-1.11 1.297 1.297 0 0 0-.322-.29.18.18 0 0 0 .017-.03.978.978 0 0 0 .171-.556 1.005 1.005 0 0 0-.09-.42 1.113 1.113 0 0 0-.258-.354 1.302 1.302 0 0 0-.902-.323zm4.991 0a.042.042 0 0 0-.043.042v3.733a.042.042 0 0 0 .043.042h.641a.042.042 0 0 0 .042-.042V17a.042.042 0 0 0-.042-.042zm11.833 2.173h.57a1.324 1.324 0 0 1 .523.087.49.49 0 0 1 .198.15.348.348 0 0 1 .082.224.39.39 0 0 1-.15.297h-.002a.688.688 0 0 1-.48.166h-.74zm0-1.447h.48a.577.577 0 0 1 .413.13.308.308 0 0 1 .111.24.284.284 0 0 1-.054.167.455.455 0 0 1-.164.135.528.528 0 0 1-.129.037 1.216 1.216 0 0 1-.195.01h-.462zm-.684-.726a.042.042 0 0 0-.042.042v3.733a.042.042 0 0 0 .042.042h1.424a1.587 1.587 0 0 0 .531-.09 1.316 1.316 0 0 0 .44-.261 1.193 1.193 0 0 0 .282-.383 1.079 1.079 0 0 0 .1-.45 1.065 1.065 0 0 0-.23-.66 1.272 1.272 0 0 0-.32-.29.287.287 0 0 0 .015-.03.975.975 0 0 0 .172-.556 1.019 1.019 0 0 0-.092-.42 1.125 1.125 0 0 0-.256-.354 1.306 1.306 0 0 0-.903-.323zm12.977 0a.042.042 0 0 0-.042.042v2.274a.874.874 0 0 1-.059.316.783.783 0 0 1-.173.262.772.772 0 0 1-1.114-.001.753.753 0 0 1-.17-.261.83.83 0 0 1-.06-.316V17a.042.042 0 0 0-.044-.042h-.64a.042.042 0 0 0-.043.042v2.274a1.536 1.536 0 0 0 .443 1.085 1.457 1.457 0 0 0 .488.333 1.513 1.513 0 0 0 1.167 0 1.555 1.555 0 0 0 .494-.333 1.643 1.643 0 0 0 .323-.501 1.534 1.534 0 0 0 .113-.584V17a.042.042 0 0 0-.042-.042zm2.802 0a.043.043 0 0 0-.043.042v.64a.043.043 0 0 0 .043.044h1.075v3.049a.042.042 0 0 0 .042.042h.635a.043.043 0 0 0 .044-.042v-3.05h1.08a.043.043 0 0 0 .042-.042V17a.042.042 0 0 0-.043-.042zm5.098 0a.042.042 0 0 0-.042.042v3.733a.042.042 0 0 0 .042.042h.641a.042.042 0 0 0 .043-.042V17a.042.042 0 0 0-.043-.042zm11.315 0a.043.043 0 0 0-.043.042v2.274a.842.842 0 0 1-.059.316.785.785 0 0 1-.172.262.751.751 0 0 1-.253.175.765.765 0 0 1-.3.062.797.797 0 0 1-.732-.5.83.83 0 0 1-.06-.315V17a.042.042 0 0 0-.042-.042h-.642a.042.042 0 0 0-.042.042v2.274a1.548 1.548 0 0 0 .443 1.085 1.472 1.472 0 0 0 .488.333 1.513 1.513 0 0 0 1.167 0 1.55 1.55 0 0 0 .494-.333 1.655 1.655 0 0 0 .323-.501 1.534 1.534 0 0 0 .113-.584V17a.042.042 0 0 0-.042-.042zm2.99 0a.043.043 0 0 0-.044.042v3.733a.043.043 0 0 0 .043.042h2.36a.042.042 0 0 0 .042-.042v-.636a.042.042 0 0 0-.043-.042h-1.676v-.828h1.251a.043.043 0 0 0 .043-.043v-.641a.042.042 0 0 0-.043-.042h-1.25v-.817h1.675a.043.043 0 0 0 .043-.043V17a.043.043 0 0 0-.043-.042zm-55.123 1.695l.39.885h-.8zm-.02-1.67l-1.73 3.73a.043.043 0 0 0 .038.062h.703a.046.046 0 0 0 .04-.024l.225-.486H49.6l.216.485a.043.043 0 0 0 .04.025h.696a.042.042 0 0 0 .04-.06l-1.645-3.732a.044.044 0 0 0-.039-.025h-.005a.04.04 0 0 0-.034.025m25.976 2.94a1.233 1.233 0 0 1 0-2.115 1.204 1.204 0 0 1 1.21 0 1.229 1.229 0 0 1 0 2.116 1.192 1.192 0 0 1-1.21 0m-.36-2.74a1.955 1.955 0 0 0-.705.708 1.95 1.95 0 0 0 0 1.949 1.955 1.955 0 0 0 .704.707 1.918 1.918 0 0 0 1.932 0 1.955 1.955 0 0 0 .704-.707 1.95 1.95 0 0 0 0-1.95 1.948 1.948 0 0 0-.704-.706 1.918 1.918 0 0 0-1.932 0m19.403 2.739a1.227 1.227 0 0 1 0-2.116 1.195 1.195 0 0 1 .61-.163 1.174 1.174 0 0 1 .603.163 1.23 1.23 0 0 1 .421 1.698l-.808-.867a.042.042 0 0 0-.059-.003l-.472.438a.044.044 0 0 0-.013.03.041.041 0 0 0 .012.03l.794.849a1.137 1.137 0 0 1-.479.106 1.187 1.187 0 0 1-.609-.165m-.358-2.74a1.956 1.956 0 0 0-.704.708 1.95 1.95 0 0 0 0 1.949 1.963 1.963 0 0 0 .704.707 1.915 1.915 0 0 0 1.957-.016l.22.229a.043.043 0 0 0 .032.014h.873a.043.043 0 0 0 .031-.071l-.616-.655a2.073 2.073 0 0 0 .285-.536 1.948 1.948 0 0 0-.85-2.328 1.918 1.918 0 0 0-1.932 0M26.9 17.179a1.935 1.935 0 0 0-.7.708 1.968 1.968 0 0 0 0 1.948 1.956 1.956 0 0 0 .7.71 1.866 1.866 0 0 0 .966.264 1.925 1.925 0 0 0 1.502-.725.044.044 0 0 0-.006-.06l-.5-.397a.042.042 0 0 0-.059.007 1.259 1.259 0 0 1-.42.334 1.142 1.142 0 0 1-.517.12 1.165 1.165 0 0 1-.602-.166 1.236 1.236 0 0 1-.44-1.673 1.21 1.21 0 0 1 .437-.446 1.183 1.183 0 0 1 1.09-.06 1.208 1.208 0 0 1 .408.296.043.043 0 0 0 .06.002l.471-.424a.044.044 0 0 0 .003-.061 1.865 1.865 0 0 0-.647-.472 1.91 1.91 0 0 0-.78-.166 1.882 1.882 0 0 0-.966.26m34.606-.187a1.525 1.525 0 0 0-.453.225 1.233 1.233 0 0 0-.338.385.966.966 0 0 0-.12.466 1.021 1.021 0 0 0 .176.573 1.175 1.175 0 0 0 .494.412 2.326 2.326 0 0 0 .716.169 1.705 1.705 0 0 1 .518.114.577.577 0 0 1 .185.153.287.287 0 0 1 .065.173.349.349 0 0 1-.169.265.883.883 0 0 1-.25.119 1.044 1.044 0 0 1-.595 0 .853.853 0 0 1-.252-.12.47.47 0 0 1-.115-.11.246.246 0 0 1-.054-.14.046.046 0 0 0-.022-.035.045.045 0 0 0-.04 0l-.569.324a.04.04 0 0 0-.018.05 1.068 1.068 0 0 0 .388.497 1.525 1.525 0 0 0 .453.225 1.788 1.788 0 0 0 1.051 0 1.513 1.513 0 0 0 .453-.225 1.194 1.194 0 0 0 .344-.385.96.96 0 0 0-.048-1.011 1.299 1.299 0 0 0-.46-.416 2.386 2.386 0 0 0-.763-.192 9.32 9.32 0 0 1-.288-.045.976.976 0 0 1-.207-.06.469.469 0 0 1-.203-.148.31.31 0 0 1-.07-.187.349.349 0 0 1 .17-.266.871.871 0 0 1 .25-.12 1.053 1.053 0 0 1 .594 0 .89.89 0 0 1 .25.119.358.358 0 0 1 .17.263.042.042 0 0 0 .022.035.045.045 0 0 0 .042 0l.572-.33a.042.042 0 0 0 .02-.051 1.12 1.12 0 0 0-.395-.502 1.535 1.535 0 0 0-.453-.224 1.81 1.81 0 0 0-1.05 0m-24.77-.086a.04.04 0 0 0-.026.039v3.789a.042.042 0 0 0 .042.042h.636a.042.042 0 0 0 .042-.042v-2.115l2.23 2.23a.042.042 0 0 0 .03.012l.017-.003a.045.045 0 0 0 .026-.04V17a.042.042 0 0 0-.043-.042h-.634a.043.043 0 0 0-.044.042v2.144l-2.23-2.23a.041.041 0 0 0-.029-.013.033.033 0 0 0-.017.004m5.35 0a.041.041 0 0 0-.028.039v3.789a.043.043 0 0 0 .043.042h.635a.042.042 0 0 0 .043-.042v-2.115l2.23 2.23a.042.042 0 0 0 .03.012l.016-.003a.044.044 0 0 0 .026-.04V17a.042.042 0 0 0-.042-.042h-.636a.042.042 0 0 0-.042.042v2.144l-2.23-2.23a.043.043 0 0 0-.03-.013.032.032 0 0 0-.016.004" transform="translate(1.432 37.37)"/><g clip-path="url(#clip-path-33)"><path class="cls-1" transform="rotate(-57.4 101.022 36.257)" d="M42.831-16.084h46.692v69.928H42.831z"/></g><path class="cls-1" d="M80.438 10.957a2.088 2.088 0 0 0 1.21-1.607 2.237 2.237 0 0 0-.675-1.78 4.475 4.475 0 0 0-2.73-1.003c-1.746-.173-3.733-1.054-3.543-2.972a2.262 2.262 0 0 1 1.313-1.746 4.619 4.619 0 0 1 2.23-.518c.189 0 .38 0 .553.017a5.027 5.027 0 0 1 2.28.76l-.172.104a4.89 4.89 0 0 0-2.126-.674 5.205 5.205 0 0 0-.536-.035 4.504 4.504 0 0 0-2.143.502 2.152 2.152 0 0 0-1.227 1.607c-.138 1.468 1.193 2.558 3.388 2.765 1.866.19 3.75 1.054 3.578 2.99a2.367 2.367 0 0 1-1.314 1.763 4.92 4.92 0 0 1-2.264.518c-.173 0-.363-.016-.536-.034a5.401 5.401 0 0 1-2.28-.743l.172-.121a4.939 4.939 0 0 0 2.644.708 4.55 4.55 0 0 0 2.178-.501M75.373.692a3.57 3.57 0 0 0-1.987 2.782c-.225 2.333 1.677 4.113 4.735 4.424 2.162.208 2.247 1.072 2.213 1.33-.017.19-.225.398-.536.571a3.423 3.423 0 0 1-1.936.328 2.887 2.887 0 0 1-2.125-1.02l-2.368 1.539a5.602 5.602 0 0 0 4.234 2.282c.225.017.45.034.657.034a6.235 6.235 0 0 0 2.886-.674 3.663 3.663 0 0 0 2.005-2.783c.224-2.402-1.642-4.13-4.736-4.425-.829-.085-2.316-.466-2.23-1.347.018-.173.226-.398.537-.57a3.457 3.457 0 0 1 1.935-.311 2.973 2.973 0 0 1 2.144 1.002l2.35-1.538A5.618 5.618 0 0 0 78.934.035a7.258 7.258 0 0 0-.68-.032 5.983 5.983 0 0 0-2.88.689m-48.321.674h.172v10.057h6.326v.191h-6.498zM25.704 0v12.962H34.9v-2.886h-6.326V0zm17.853 10.37a4.224 4.224 0 0 0 .985-2.8V1.089h.155v6.48a4.305 4.305 0 0 1-1.037 2.904 3.662 3.662 0 0 1-2.816 1.054 3.918 3.918 0 0 1-2.886-1.054 4.276 4.276 0 0 1-1.09-2.834v-6.55h.156v6.55a4.256 4.256 0 0 0 1.037 2.73 3.72 3.72 0 0 0 2.783 1.02 3.556 3.556 0 0 0 2.713-1.02M43.125 0v7.708a2.733 2.733 0 0 1-.622 1.797 2.271 2.271 0 0 1-1.712.57 2.095 2.095 0 0 1-2.125-1.036 3.01 3.01 0 0 1-.328-1.279V0H35.45v7.725a5.62 5.62 0 0 0 1.487 3.768 5.156 5.156 0 0 0 3.853 1.469 5.13 5.13 0 0 0 3.82-1.469 5.742 5.742 0 0 0 1.4-3.888V0zm5.219 6.48a5.161 5.161 0 0 1 7.967-4.337l-.138.121a4.986 4.986 0 1 0 0 8.416l.138.139a5.307 5.307 0 0 1-2.816.813 5.142 5.142 0 0 1-5.151-5.151m-1.33 0a6.485 6.485 0 0 0 11.285 4.356l-2.074-1.885a3.794 3.794 0 0 1-2.73 1.193 3.664 3.664 0 0 1 0-7.328 3.727 3.727 0 0 1 2.73 1.193l2.074-1.884A6.485 6.485 0 0 0 47.013 6.48m21.569-5.133h.19l-3.854 5.185v5.081h-.173v-5.08L61.41 1.347h.19l3.23 5.013zM67.908 0l-2.99 4.01L62.325 0h-3.422l4.511 6.948v6.014h2.87V6.999L71.484 0zM91.36 1.313h.294l-4.131 4.321 5.686 6.014h-.276l-5.548-5.84-1.988 2.073v3.767h-.138v-10.3h.138v6.24zM90.789 0l-3.404 3.595-.675.708V.017h-2.764v12.945h2.764V8.416l.675-.708 4.995 5.254h3.888l-6.93-7.328L94.712 0zm14.345 1.348h.19l-3.854 5.185v5.081h-.173v-5.08L97.96 1.347h.19l3.233 5.012zM104.459 0l-2.99 4.01L98.879 0h-3.422l4.51 6.948v6.014h2.87V6.999L108.036 0z" transform="translate(1.432 37.37)"/><g clip-path="url(#clip-path-34)"><path class="cls-1" transform="rotate(-57.4 101.716 23.858)" d="M39.232-31.692H94.51v76.345H39.232z"/></g></svg>