<svg id="Isolation_Mode" data-name="Isolation Mode" xmlns="http://www.w3.org/2000/svg" xmlns:xlink="http://www.w3.org/1999/xlink" viewBox="0 0 62.38449 62.384"><defs><style>.cls-1{fill:#fff;}.cls-2{clip-path:url(#clip-path);}.cls-3{clip-path:url(#clip-path-2);}.cls-4{clip-path:url(#clip-path-3);}.cls-5{clip-path:url(#clip-path-4);}.cls-6{clip-path:url(#clip-path-5);}.cls-7{clip-path:url(#clip-path-6);}.cls-8{clip-path:url(#clip-path-7);}.cls-9{clip-path:url(#clip-path-8);}.cls-10{clip-path:url(#clip-path-9);}.cls-11{clip-path:url(#clip-path-10);}.cls-12{clip-path:url(#clip-path-11);}.cls-13{clip-path:url(#clip-path-12);}.cls-14{clip-path:url(#clip-path-13);}.cls-15{clip-path:url(#clip-path-14);}.cls-16{clip-path:url(#clip-path-15);}.cls-17{clip-path:url(#clip-path-16);}.cls-18{clip-path:url(#clip-path-17);}.cls-19{clip-path:url(#clip-path-18);}.cls-20{clip-path:url(#clip-path-19);}.cls-21{clip-path:url(#clip-path-20);}</style><clipPath id="clip-path"><polygon class="cls-1" points="41.511 25.609 46.247 16.136 36.774 20.873 32.038 30.345 41.511 25.609"/></clipPath><clipPath id="clip-path-2"><polygon class="cls-1" points="32.038 32.039 36.774 41.511 46.247 46.248 41.511 36.775 32.038 32.039"/></clipPath><clipPath id="clip-path-3"><polygon class="cls-1" points="16.136 16.136 20.872 25.609 30.345 30.345 25.609 20.873 16.136 16.136"/></clipPath><clipPath id="clip-path-4"><polygon class="cls-1" points="25.609 41.511 30.345 32.039 20.872 36.775 16.136 46.248 25.609 41.511"/></clipPath><clipPath id="clip-path-5"><rect class="cls-1" x="44.19671" y="17.69342" width="11.09538" height="11.09538" transform="translate(6.71059 57.34016) rotate(-63.43502)"/></clipPath><clipPath id="clip-path-6"><rect class="cls-1" x="33.59487" y="7.09145" width="11.09605" height="11.09581" transform="translate(-1.52007 18.83956) rotate(-26.56498)"/></clipPath><clipPath id="clip-path-7"><rect class="cls-1" x="44.1966" y="33.59545" width="11.09559" height="11.09582" transform="translate(-12.25328 26.3764) rotate(-26.5628)"/></clipPath><clipPath id="clip-path-8"><rect class="cls-1" x="33.59499" y="44.19661" width="11.09581" height="11.09649" transform="translate(-22.85548 62.50883) rotate(-63.43502)"/></clipPath><clipPath id="clip-path-9"><rect class="cls-1" x="7.09171" y="17.69341" width="11.09537" height="11.09538" transform="translate(-9.05936 8.10614) rotate(-26.56505)"/></clipPath><clipPath id="clip-path-10"><rect class="cls-1" x="17.69263" y="7.09155" width="11.09604" height="11.09561" transform="translate(1.54092 27.7722) rotate(-63.43037)"/></clipPath><clipPath id="clip-path-11"><rect class="cls-1" x="7.09149" y="33.59556" width="11.09582" height="11.09559" transform="translate(-28.02424 32.94454) rotate(-63.4372)"/></clipPath><clipPath id="clip-path-12"><rect class="cls-1" x="17.69263" y="44.19684" width="11.09604" height="11.09604" transform="translate(-19.793 15.64524) rotate(-26.56505)"/></clipPath><clipPath id="clip-path-13"><polygon class="cls-1" points="41.793 26.315 32.795 30.813 50.791 30.813 41.793 26.315"/></clipPath><clipPath id="clip-path-14"><polygon class="cls-1" points="31.57 11.593 31.57 29.588 36.069 20.59 31.57 11.593"/></clipPath><clipPath id="clip-path-15"><polygon class="cls-1" points="32.795 31.571 41.793 36.07 50.791 31.571 32.795 31.571"/></clipPath><clipPath id="clip-path-16"><polygon class="cls-1" points="31.57 32.796 31.57 50.791 36.069 41.794 31.57 32.796"/></clipPath><clipPath id="clip-path-17"><polygon class="cls-1" points="20.59 26.315 11.592 30.813 29.588 30.813 20.59 26.315"/></clipPath><clipPath id="clip-path-18"><polygon class="cls-1" points="30.813 11.593 26.314 20.59 30.813 29.588 30.813 11.593"/></clipPath><clipPath id="clip-path-19"><polygon class="cls-1" points="20.59 36.07 29.588 31.571 11.592 31.571 20.59 36.07"/></clipPath><clipPath id="clip-path-20"><polygon class="cls-1" points="30.813 32.796 26.314 41.794 30.813 50.791 30.813 32.796"/></clipPath></defs><title>icon-logo</title><polygon class="cls-1" points="57.695 21.437 53.007 30.813 62.384 30.813 57.695 21.437"/><polygon class="cls-1" points="57.695 40.947 62.384 31.571 53.007 31.571 57.695 40.947"/><polygon class="cls-1" points="52.113 52.113 56.849 42.64 47.377 47.376 42.64 56.849 52.113 52.113"/><polygon class="cls-1" points="31.57 53.008 31.57 62.384 40.946 57.696 31.57 53.008"/><polygon class="cls-1" points="4.688 21.437 0 30.814 9.376 30.814 4.688 21.437"/><polygon class="cls-1" points="15.007 15.007 19.743 5.534 10.271 10.271 5.534 19.743 15.007 15.007"/><polygon class="cls-1" points="4.688 40.947 9.376 31.571 0 31.571 4.688 40.947"/><polygon class="cls-1" points="5.535 42.641 10.272 52.114 19.744 56.85 15.008 47.377 5.535 42.641"/><polygon class="cls-1" points="30.813 53.008 21.437 57.696 30.813 62.384 30.813 53.008"/><polygon class="cls-1" points="31.57 0 31.57 9.376 40.946 4.688 31.57 0"/><polygon class="cls-1" points="30.813 0 21.436 4.688 30.813 9.376 30.813 0"/><polygon class="cls-1" points="42.64 5.535 47.376 15.008 56.849 19.744 52.113 10.271 42.64 5.535"/><polygon class="cls-1" points="41.511 25.609 46.247 16.136 36.774 20.873 32.038 30.345 41.511 25.609"/><g class="cls-2"><rect class="cls-1" x="29.0956" y="13.19337" width="20.09458" height="20.09458" transform="translate(-4.96894 34.48526) rotate(-45.00003)"/></g><polygon class="cls-1" points="32.038 32.039 36.774 41.511 46.247 46.248 41.511 36.775 32.038 32.039"/><g class="cls-3"><rect class="cls-1" x="29.09559" y="29.09636" width="20.09459" height="20.09454" transform="translate(-16.21404 39.14311) rotate(-45)"/></g><polygon class="cls-1" points="16.136 16.136 20.872 25.609 30.345 30.345 25.609 20.873 16.136 16.136"/><g class="cls-4"><rect class="cls-1" x="13.19358" y="13.19335" width="20.09459" height="20.09457" transform="translate(-9.62652 23.24084) rotate(-45.00006)"/></g><polygon class="cls-1" points="25.609 41.511 30.345 32.039 20.872 36.775 16.136 46.248 25.609 41.511"/><g class="cls-5"><rect class="cls-1" x="13.19361" y="29.09633" width="20.09458" height="20.09458" transform="translate(-20.87162 27.89869) rotate(-45)"/></g><rect class="cls-1" x="44.19671" y="17.69342" width="11.09538" height="11.09538" transform="translate(6.71059 57.34016) rotate(-63.43502)"/><g class="cls-6"><rect class="cls-1" x="40.25966" y="13.7564" width="18.96946" height="18.96946" transform="translate(-4.88593 17.74729) rotate(-19.29992)"/></g><rect class="cls-1" x="33.59487" y="7.09145" width="11.09605" height="11.09581" transform="translate(-1.52007 18.83956) rotate(-26.56498)"/><g class="cls-7"><rect class="cls-1" x="29.65002" y="3.146" width="18.98572" height="18.9863" transform="translate(14.21961 45.36138) rotate(-70.60001)"/></g><rect class="cls-1" x="44.1966" y="33.59545" width="11.09559" height="11.09582" transform="translate(-12.25328 26.3764) rotate(-26.5628)"/><g class="cls-8"><rect class="cls-1" x="40.25122" y="29.65079" width="18.98632" height="18.98569" transform="translate(-3.69993 73.06167) rotate(-70.60001)"/></g><rect class="cls-1" x="33.59499" y="44.19661" width="11.09581" height="11.09649" transform="translate(-22.85548 62.50883) rotate(-63.43502)"/><g class="cls-9"><rect class="cls-1" x="29.87438" y="40.47613" width="18.53702" height="18.53706" transform="translate(-12.64369 13.34621) rotate(-16.69998)"/></g><rect class="cls-1" x="7.09171" y="17.69341" width="11.09537" height="11.09538" transform="translate(-9.05936 8.10614) rotate(-26.56505)"/><g class="cls-10"><rect class="cls-1" x="3.15464" y="13.75639" width="18.96949" height="18.96947" transform="translate(-13.47311 27.4887) rotate(-70.70008)"/></g><rect class="cls-1" x="17.69263" y="7.09155" width="11.09604" height="11.09561" transform="translate(1.54092 27.7722) rotate(-63.43037)"/><g class="cls-11"><rect class="cls-1" x="13.7878" y="3.18632" width="18.90619" height="18.90561" transform="translate(-2.84101 8.20956) rotate(-18.9)"/></g><rect class="cls-1" x="7.09149" y="33.59556" width="11.09582" height="11.09559" transform="translate(-28.02424 32.94454) rotate(-63.4372)"/><g class="cls-12"><rect class="cls-1" x="3.17048" y="29.67442" width="18.93782" height="18.93839" transform="translate(-12.11265 6.29071) rotate(-19.09995)"/></g><rect class="cls-1" x="17.69263" y="44.19684" width="11.09604" height="11.09604" transform="translate(-19.793 15.64524) rotate(-26.56505)"/><g class="cls-13"><rect class="cls-1" x="14.04297" y="40.54668" width="18.39586" height="18.39588" transform="translate(-30.96762 58.46834) rotate(-74.09998)"/></g><polygon class="cls-1" points="41.793 26.315 32.795 30.813 50.791 30.813 41.793 26.315"/><g class="cls-14"><rect class="cls-1" x="32.79539" y="26.31509" width="17.996" height="4.49805"/></g><polygon class="cls-1" points="31.57 11.593 31.57 29.588 36.069 20.59 31.57 11.593"/><g class="cls-15"><rect class="cls-1" x="31.5704" y="11.59311" width="4.49898" height="17.995"/></g><polygon class="cls-1" points="32.795 31.571 41.793 36.07 50.791 31.571 32.795 31.571"/><g class="cls-16"><rect class="cls-1" x="32.79538" y="31.57114" width="17.99602" height="4.49896"/></g><polygon class="cls-1" points="31.57 32.796 31.57 50.791 36.069 41.794 31.57 32.796"/><g class="cls-17"><rect class="cls-1" x="31.57039" y="32.79614" width="4.49901" height="17.995"/></g><polygon class="cls-1" points="20.59 26.315 11.592 30.813 29.588 30.813 20.59 26.315"/><g class="cls-18"><rect class="cls-1" x="11.59238" y="26.31506" width="17.996" height="4.49802"/></g><polygon class="cls-1" points="30.813 11.593 26.314 20.59 30.813 29.588 30.813 11.593"/><g class="cls-19"><rect class="cls-1" x="26.31439" y="11.59311" width="4.49901" height="17.99503"/></g><polygon class="cls-1" points="20.59 36.07 29.588 31.571 11.592 31.571 20.59 36.07"/><g class="cls-20"><rect class="cls-1" x="11.59239" y="31.57117" width="17.996" height="4.49893"/></g><polygon class="cls-1" points="30.813 32.796 26.314 41.794 30.813 50.791 30.813 32.796"/><g class="cls-21"><rect class="cls-1" x="26.31439" y="32.79614" width="4.49901" height="17.99496"/></g></svg>