<svg id="Isolation_Mode" data-name="Isolation Mode" xmlns="http://www.w3.org/2000/svg" xmlns:xlink="http://www.w3.org/1999/xlink" viewBox="0 0 115.3529 94.75566"><defs><style>.cls-1{fill:#fff;}.cls-2{clip-path:url(#clip-path);}.cls-3{clip-path:url(#clip-path-2);}.cls-4{clip-path:url(#clip-path-3);}.cls-5{clip-path:url(#clip-path-4);}.cls-6{clip-path:url(#clip-path-5);}.cls-7{clip-path:url(#clip-path-6);}.cls-8{clip-path:url(#clip-path-7);}.cls-9{clip-path:url(#clip-path-8);}.cls-10{clip-path:url(#clip-path-9);}.cls-11{clip-path:url(#clip-path-10);}.cls-12{clip-path:url(#clip-path-11);}.cls-13{clip-path:url(#clip-path-12);}.cls-14{clip-path:url(#clip-path-13);}.cls-15{clip-path:url(#clip-path-14);}.cls-16{clip-path:url(#clip-path-15);}.cls-17{clip-path:url(#clip-path-16);}.cls-18{clip-path:url(#clip-path-17);}.cls-19{clip-path:url(#clip-path-18);}.cls-20{clip-path:url(#clip-path-19);}.cls-21{clip-path:url(#clip-path-20);}.cls-22{clip-path:url(#clip-path-21);}.cls-23{clip-path:url(#clip-path-22);}.cls-24{clip-path:url(#clip-path-23);}.cls-25{clip-path:url(#clip-path-24);}.cls-26{clip-path:url(#clip-path-25);}.cls-27{clip-path:url(#clip-path-26);}.cls-28{clip-path:url(#clip-path-27);}.cls-29{clip-path:url(#clip-path-28);}.cls-30{clip-path:url(#clip-path-29);}.cls-31{clip-path:url(#clip-path-30);}.cls-32{clip-path:url(#clip-path-31);}.cls-33{clip-path:url(#clip-path-32);}.cls-34{clip-path:url(#clip-path-33);}.cls-35{clip-path:url(#clip-path-34);}</style><clipPath id="clip-path" transform="translate(1.43233 37.37017)"><polygon class="cls-1" points="19.419 7.215 17.841 10.371 20.997 10.371 19.419 7.215"/></clipPath><clipPath id="clip-path-2" transform="translate(1.43233 37.37017)"><polygon class="cls-1" points="19.419 13.782 20.997 10.626 17.841 10.626 19.419 13.782"/></clipPath><clipPath id="clip-path-3" transform="translate(1.43233 37.37017)"><polygon class="cls-1" points="17.539 17.54 19.134 14.352 15.946 15.946 14.351 19.134 17.539 17.54"/></clipPath><clipPath id="clip-path-4" transform="translate(1.43233 37.37017)"><polygon class="cls-1" points="10.625 17.841 10.625 20.997 13.782 19.419 10.625 17.841"/></clipPath><clipPath id="clip-path-5" transform="translate(1.43233 37.37017)"><polygon class="cls-1" points="1.578 7.215 0 10.371 3.156 10.371 1.578 7.215"/></clipPath><clipPath id="clip-path-6" transform="translate(1.43233 37.37017)"><polygon class="cls-1" points="5.051 5.051 6.645 1.863 3.457 3.457 1.863 6.645 5.051 5.051"/></clipPath><clipPath id="clip-path-7" transform="translate(1.43233 37.37017)"><polygon class="cls-1" points="1.578 13.782 3.156 10.626 0 10.626 1.578 13.782"/></clipPath><clipPath id="clip-path-8" transform="translate(1.43233 37.37017)"><polygon class="cls-1" points="1.863 14.352 3.457 17.54 6.645 19.134 5.051 15.946 1.863 14.352"/></clipPath><clipPath id="clip-path-9" transform="translate(1.43233 37.37017)"><polygon class="cls-1" points="10.371 17.841 7.215 19.419 10.371 20.997 10.371 17.841"/></clipPath><clipPath id="clip-path-10" transform="translate(1.43233 37.37017)"><polygon class="cls-1" points="10.625 0 10.625 3.156 13.782 1.578 10.625 0"/></clipPath><clipPath id="clip-path-11" transform="translate(1.43233 37.37017)"><polygon class="cls-1" points="10.371 0 7.215 1.578 10.371 3.156 10.371 0"/></clipPath><clipPath id="clip-path-12" transform="translate(1.43233 37.37017)"><polygon class="cls-1" points="14.351 1.863 15.946 5.051 19.134 6.645 17.539 3.457 14.351 1.863"/></clipPath><clipPath id="clip-path-13" transform="translate(1.43233 37.37017)"><polygon class="cls-1" points="13.971 8.619 15.566 5.431 12.377 7.025 10.783 10.213 13.971 8.619"/></clipPath><clipPath id="clip-path-14" transform="translate(1.43233 37.37017)"><polygon class="cls-1" points="10.783 10.783 12.377 13.972 15.566 15.566 13.971 12.377 10.783 10.783"/></clipPath><clipPath id="clip-path-15" transform="translate(1.43233 37.37017)"><polygon class="cls-1" points="5.431 5.431 7.025 8.619 10.213 10.213 8.619 7.025 5.431 5.431"/></clipPath><clipPath id="clip-path-16" transform="translate(1.43233 37.37017)"><polygon class="cls-1" points="8.619 13.972 10.213 10.783 7.025 12.377 5.431 15.566 8.619 13.972"/></clipPath><clipPath id="clip-path-17" transform="translate(1.43233 37.37017)"><rect class="cls-1" x="14.87557" y="5.95501" width="3.73413" height="3.73447" transform="translate(2.25936 19.29997) rotate(-63.4384)"/></clipPath><clipPath id="clip-path-18" transform="translate(1.43233 37.37017)"><rect class="cls-1" x="11.3071" y="2.38685" width="3.73436" height="3.73436" transform="translate(-0.51186 6.33918) rotate(-26.55815)"/></clipPath><clipPath id="clip-path-19" transform="translate(1.43233 37.37017)"><rect class="cls-1" x="14.8754" y="11.30735" width="3.73447" height="3.73458" transform="translate(-4.12431 8.87842) rotate(-26.56505)"/></clipPath><clipPath id="clip-path-20" transform="translate(1.43233 37.37017)"><rect class="cls-1" x="11.307" y="14.87551" width="3.73457" height="3.73447" transform="translate(-7.69261 21.03856) rotate(-63.43484)"/></clipPath><clipPath id="clip-path-21" transform="translate(1.43233 37.37017)"><rect class="cls-1" x="2.38657" y="5.95513" width="3.7347" height="3.73425" transform="translate(-3.04942 2.72867) rotate(-26.5685)"/></clipPath><clipPath id="clip-path-22" transform="translate(1.43233 37.37017)"><rect class="cls-1" x="5.95478" y="2.38673" width="3.73447" height="3.73458" transform="translate(0.51899 9.34779) rotate(-63.43495)"/></clipPath><clipPath id="clip-path-23" transform="translate(1.43233 37.37017)"><rect class="cls-1" x="2.38657" y="11.3073" width="3.7347" height="3.7347" transform="translate(-9.43225 11.08758) rotate(-63.43495)"/></clipPath><clipPath id="clip-path-24" transform="translate(1.43233 37.37017)"><rect class="cls-1" x="5.95466" y="14.87541" width="3.7347" height="3.73468" transform="translate(-6.66181 5.26572) rotate(-26.56516)"/></clipPath><clipPath id="clip-path-25" transform="translate(1.43233 37.37017)"><polygon class="cls-1" points="14.067 8.857 11.038 10.371 17.095 10.371 14.067 8.857"/></clipPath><clipPath id="clip-path-26" transform="translate(1.43233 37.37017)"><polygon class="cls-1" points="10.625 3.902 10.625 9.959 12.14 6.93 10.625 3.902"/></clipPath><clipPath id="clip-path-27" transform="translate(1.43233 37.37017)"><polygon class="cls-1" points="11.038 10.626 14.067 12.14 17.095 10.626 11.038 10.626"/></clipPath><clipPath id="clip-path-28" transform="translate(1.43233 37.37017)"><polygon class="cls-1" points="10.625 11.038 10.625 17.095 12.14 14.067 10.625 11.038"/></clipPath><clipPath id="clip-path-29" transform="translate(1.43233 37.37017)"><polygon class="cls-1" points="6.93 8.857 3.902 10.371 9.958 10.371 6.93 8.857"/></clipPath><clipPath id="clip-path-30" transform="translate(1.43233 37.37017)"><polygon class="cls-1" points="10.371 3.902 8.857 6.93 10.371 9.959 10.371 3.902"/></clipPath><clipPath id="clip-path-31" transform="translate(1.43233 37.37017)"><polygon class="cls-1" points="6.93 12.14 9.958 10.626 3.902 10.626 6.93 12.14"/></clipPath><clipPath id="clip-path-32" transform="translate(1.43233 37.37017)"><polygon class="cls-1" points="10.371 11.038 8.857 14.067 10.371 17.095 10.371 11.038"/></clipPath><clipPath id="clip-path-33" transform="translate(1.43233 37.37017)"><path class="cls-1" d="M32.9451,18.65266l.39.885h-.798Zm-.019-1.67-1.73,3.731a.04246.04246,0,0,0,.002.041.04112.04112,0,0,0,.036.02h.703a.04389.04389,0,0,0,.039-.024l.227-.486h1.453l.216.485a.043.043,0,0,0,.039.025h.698a.04193.04193,0,0,0,.035-.019.04028.04028,0,0,0,.003-.041l-1.644-3.732a.04311.04311,0,0,0-.039-.025.04067.04067,0,0,0-.038.025m20.447,2.148h.57a1.31217,1.31217,0,0,1,.522.087.48969.48969,0,0,1,.199.151.34645.34645,0,0,1,.081.223.38616.38616,0,0,1-.15.297v.001a.69587.69587,0,0,1-.482.165h-.74Zm0-1.447h.479a.57487.57487,0,0,1,.414.131.30838.30838,0,0,1,.111.24.28228.28228,0,0,1-.055.166.44281.44281,0,0,1-.163.135.51523.51523,0,0,1-.129.037,1.20677,1.20677,0,0,1-.195.011h-.462Zm-.683-.726a.04249.04249,0,0,0-.043.042v3.733a.04247.04247,0,0,0,.043.042h1.423a1.56816,1.56816,0,0,0,.53-.09,1.3109,1.3109,0,0,0,.44-.261,1.17569,1.17569,0,0,0,.282-.383,1.05681,1.05681,0,0,0-.129-1.109v-.001a1.29721,1.29721,0,0,0-.322-.29.17961.17961,0,0,0,.017-.029.978.978,0,0,0,.171-.557,1.00531,1.00531,0,0,0-.091-.42,1.113,1.113,0,0,0-.257-.354,1.30193,1.30193,0,0,0-.902-.323Zm4.991,0a.04249.04249,0,0,0-.043.042v3.733a.04247.04247,0,0,0,.043.042h.641a.04225.04225,0,0,0,.042-.042v-3.733a.04227.04227,0,0,0-.042-.042Zm11.833,2.173h.57a1.32435,1.32435,0,0,1,.523.087.48937.48937,0,0,1,.198.151.34776.34776,0,0,1,.082.223.39072.39072,0,0,1-.151.297l-.001.001a.68818.68818,0,0,1-.481.165h-.74Zm0-1.447h.479a.5765.5765,0,0,1,.414.131.30828.30828,0,0,1,.111.24.28361.28361,0,0,1-.054.166.45514.45514,0,0,1-.164.135.52842.52842,0,0,1-.129.037,1.21559,1.21559,0,0,1-.195.011h-.462Zm-.684-.726a.04225.04225,0,0,0-.042.042v3.733a.04223.04223,0,0,0,.042.042h1.424a1.58682,1.58682,0,0,0,.531-.09,1.31624,1.31624,0,0,0,.439-.261,1.19333,1.19333,0,0,0,.283-.383,1.07886,1.07886,0,0,0,.1-.449,1.06541,1.06541,0,0,0-.231-.66v-.001a1.27167,1.27167,0,0,0-.32-.29.28669.28669,0,0,0,.016-.029.97462.97462,0,0,0,.172-.557,1.01874,1.01874,0,0,0-.092-.42,1.12549,1.12549,0,0,0-.256-.354,1.3062,1.3062,0,0,0-.903-.323Zm12.977,0a.04225.04225,0,0,0-.042.042v2.274a.87406.87406,0,0,1-.059.316.783.783,0,0,1-.173.262.77191.77191,0,0,1-1.114-.001.75344.75344,0,0,1-.171-.261.83024.83024,0,0,1-.06-.316v-2.274a.04249.04249,0,0,0-.043-.042h-.641a.04227.04227,0,0,0-.042.042v2.274a1.53647,1.53647,0,0,0,.443,1.085,1.45667,1.45667,0,0,0,.488.333,1.51341,1.51341,0,0,0,1.167,0,1.55475,1.55475,0,0,0,.494-.333,1.64328,1.64328,0,0,0,.323-.501,1.53351,1.53351,0,0,0,.113-.584v-2.274a.04227.04227,0,0,0-.042-.042Zm2.802,0a.04313.04313,0,0,0-.043.042v.641a.04332.04332,0,0,0,.043.043h1.075v3.049a.04223.04223,0,0,0,.042.042h.635a.04333.04333,0,0,0,.044-.042v-3.049h1.079a.0427.0427,0,0,0,.043-.043v-.641a.04249.04249,0,0,0-.043-.042Zm5.098,0a.04227.04227,0,0,0-.042.042v3.733a.04225.04225,0,0,0,.042.042h.641a.04247.04247,0,0,0,.043-.042v-3.733a.04249.04249,0,0,0-.043-.042Zm11.315,0a.04315.04315,0,0,0-.043.042v2.274a.84175.84175,0,0,1-.059.316.78474.78474,0,0,1-.172.262.7514.7514,0,0,1-.253.175.76476.76476,0,0,1-.301.062.79665.79665,0,0,1-.731-.499.83024.83024,0,0,1-.06-.316v-2.274a.04227.04227,0,0,0-.042-.042h-.642a.04227.04227,0,0,0-.042.042v2.274a1.548,1.548,0,0,0,.443,1.085,1.47153,1.47153,0,0,0,.488.333,1.51349,1.51349,0,0,0,1.167,0,1.54925,1.54925,0,0,0,.494-.333,1.65492,1.65492,0,0,0,.323-.501,1.53351,1.53351,0,0,0,.113-.584v-2.274a.04227.04227,0,0,0-.042-.042Zm2.989,0a.04313.04313,0,0,0-.043.042v3.733a.04311.04311,0,0,0,.043.042h2.359a.04248.04248,0,0,0,.043-.042v-.636a.04248.04248,0,0,0-.043-.042h-1.676v-.828h1.251a.04268.04268,0,0,0,.043-.043v-.641a.04184.04184,0,0,0-.043-.042h-1.251v-.817h1.676a.0427.0427,0,0,0,.043-.043v-.641a.0425.0425,0,0,0-.043-.042Zm-55.122,1.695.389.885h-.799Zm-.021-1.67-1.73,3.731a.04329.04329,0,0,0,.039.061h.703a.04637.04637,0,0,0,.039-.024l.226-.486h1.454l.216.485a.04306.04306,0,0,0,.039.025h.697a.04217.04217,0,0,0,.039-.06l-1.644-3.732a.04421.04421,0,0,0-.039-.025h-.005a.04.04,0,0,0-.034.025m25.976,2.941a1.23341,1.23341,0,0,1,0-2.116,1.20429,1.20429,0,0,1,1.21,0,1.22862,1.22862,0,0,1,0,2.116,1.1916,1.1916,0,0,1-1.21,0m-.361-2.739a1.95541,1.95541,0,0,0-.704.707,1.94965,1.94965,0,0,0,0,1.949,1.95517,1.95517,0,0,0,.704.707,1.91806,1.91806,0,0,0,1.932,0,1.95523,1.95523,0,0,0,.704-.707,1.94985,1.94985,0,0,0,0-1.949,1.94794,1.94794,0,0,0-.704-.707,1.91825,1.91825,0,0,0-1.932,0m19.403,2.739a1.22687,1.22687,0,0,1,0-2.116,1.19494,1.19494,0,0,1,.609-.163,1.17432,1.17432,0,0,1,.604.163,1.23044,1.23044,0,0,1,.421,1.698l-.808-.867a.04236.04236,0,0,0-.059-.003l-.472.438a.044.044,0,0,0-.013.03.0414.0414,0,0,0,.012.03l.794.849a1.13723,1.13723,0,0,1-.479.106,1.18692,1.18692,0,0,1-.609-.165m-.358-2.739a1.95573,1.95573,0,0,0-.704.707,1.94985,1.94985,0,0,0,0,1.949,1.96308,1.96308,0,0,0,.704.707,1.91454,1.91454,0,0,0,1.957-.016l.22.229a.04307.04307,0,0,0,.032.014h.873a.04263.04263,0,0,0,.031-.071l-.616-.655a2.07281,2.07281,0,0,0,.285-.536,1.948,1.948,0,0,0-.85-2.328,1.91825,1.91825,0,0,0-1.932,0m-66.629-.006a1.93461,1.93461,0,0,0-.701.708,1.96754,1.96754,0,0,0,0,1.948,1.95584,1.95584,0,0,0,.701.71,1.86577,1.86577,0,0,0,.966.264,1.92453,1.92453,0,0,0,1.502-.725.04378.04378,0,0,0-.006-.06l-.5-.397a.04174.04174,0,0,0-.059.007,1.25878,1.25878,0,0,1-.42.334,1.14231,1.14231,0,0,1-.517.121,1.16493,1.16493,0,0,1-.602-.167,1.23552,1.23552,0,0,1-.441-1.673,1.20911,1.20911,0,0,1,.438-.446,1.18315,1.18315,0,0,1,1.09-.06,1.20814,1.20814,0,0,1,.408.296.04262.04262,0,0,0,.06.002l.471-.424a.04382.04382,0,0,0,.003-.061,1.86469,1.86469,0,0,0-.647-.472,1.91073,1.91073,0,0,0-.78-.166,1.882,1.882,0,0,0-.966.261m34.606-.188a1.525,1.525,0,0,0-.453.225,1.23252,1.23252,0,0,0-.338.385.96646.96646,0,0,0-.121.466,1.021,1.021,0,0,0,.177.573,1.17491,1.17491,0,0,0,.494.412,2.326,2.326,0,0,0,.716.169,1.705,1.705,0,0,1,.518.114.57658.57658,0,0,1,.185.153.28712.28712,0,0,1,.065.173.34867.34867,0,0,1-.169.265.88313.88313,0,0,1-.251.119,1.04433,1.04433,0,0,1-.594,0,.85254.85254,0,0,1-.252-.12.47053.47053,0,0,1-.115-.109.24639.24639,0,0,1-.054-.141.04615.04615,0,0,0-.022-.035.04543.04543,0,0,0-.041.001l-.568.323a.04058.04058,0,0,0-.018.051,1.06812,1.06812,0,0,0,.388.496,1.525,1.525,0,0,0,.453.225,1.78771,1.78771,0,0,0,1.051,0,1.51269,1.51269,0,0,0,.453-.225,1.19364,1.19364,0,0,0,.344-.385.96082.96082,0,0,0-.048-1.011,1.29876,1.29876,0,0,0-.46-.416h-.001a2.38569,2.38569,0,0,0-.762-.192c-.109-.015-.205-.031-.288-.045a.97563.97563,0,0,1-.207-.06.4689.4689,0,0,1-.203-.148.31058.31058,0,0,1-.071-.187.349.349,0,0,1,.17-.266.87106.87106,0,0,1,.251-.119,1.05292,1.05292,0,0,1,.594,0,.88952.88952,0,0,1,.25.118.35773.35773,0,0,1,.17.263.04229.04229,0,0,0,.022.035.04467.04467,0,0,0,.042,0l.572-.329a.0423.0423,0,0,0,.019-.052,1.11965,1.11965,0,0,0-.394-.502,1.53469,1.53469,0,0,0-.453-.224,1.80911,1.80911,0,0,0-1.051,0m-24.769-.086a.04039.04039,0,0,0-.026.039v3.789a.04223.04223,0,0,0,.042.042h.636a.04225.04225,0,0,0,.042-.042v-2.115l2.23,2.23a.04237.04237,0,0,0,.03.012l.017-.003a.0454.0454,0,0,0,.026-.04v-3.817a.04247.04247,0,0,0-.043-.042h-.634a.04271.04271,0,0,0-.044.042v2.144l-2.23-2.23a.04109.04109,0,0,0-.029-.013.03286.03286,0,0,0-.017.004m5.349,0a.04126.04126,0,0,0-.027.039v3.789a.0431.0431,0,0,0,.043.042h.635a.04247.04247,0,0,0,.043-.042v-2.115l2.23,2.23a.04237.04237,0,0,0,.03.012l.016-.003a.04373.04373,0,0,0,.026-.04v-3.817a.04227.04227,0,0,0-.042-.042h-.636a.04225.04225,0,0,0-.042.042v2.144l-2.23-2.23a.04339.04339,0,0,0-.03-.013.03165.03165,0,0,0-.016.004"/></clipPath><clipPath id="clip-path-34" transform="translate(1.43233 37.37017)"><path class="cls-1" d="M80.43784,10.95654a2.08817,2.08817,0,0,0,1.2095-1.60666,2.23734,2.23734,0,0,0-.67439-1.78009,4.47506,4.47506,0,0,0-2.73042-1.00257c-1.74529-.17278-3.733-1.05413-3.54279-2.97218A2.26225,2.26225,0,0,1,76.013,1.84909a4.61892,4.61892,0,0,1,2.22949-.51837c.18952,0,.38039,0,.55318.01741a5.02714,5.02714,0,0,1,2.28105.76013l-.17278.1038a4.89045,4.89045,0,0,0-2.12568-.67374,5.20538,5.20538,0,0,0-.53576-.03483,4.50426,4.50426,0,0,0-2.14309.50163,2.15186,2.15186,0,0,0-1.22692,1.60664C74.73388,5.08045,76.0646,6.17009,78.25994,6.377c1.86581.1902,3.75038,1.05413,3.5776,2.9896A2.36655,2.36655,0,0,1,80.52423,11.13a4.92069,4.92069,0,0,1-2.26429.51835c-.1728,0-.363-.01674-.53578-.03415a5.4011,5.4011,0,0,1-2.28105-.74339l.1728-.12122a4.939,4.939,0,0,0,2.644.70857,4.54951,4.54951,0,0,0,2.1779-.50161M75.37347.69183a3.56981,3.56981,0,0,0-1.987,2.782c-.225,2.33329,1.67629,4.11338,4.73489,4.42412,2.16116.20761,2.24688,1.07155,2.21273,1.33072-.01741.1902-.225.39715-.53576.57061a3.42335,3.42335,0,0,1-1.93616.32815,2.8873,2.8873,0,0,1-2.125-1.02L73.369,10.64578a5.60205,5.60205,0,0,0,4.23393,2.28173c.225.01741.45.03415.657.03415a6.23468,6.23468,0,0,0,2.88579-.67372,3.66324,3.66324,0,0,0,2.00512-2.78268c.22437-2.40225-1.64214-4.13012-4.73554-4.4248-.82911-.08572-2.31588-.46611-2.22949-1.34746.01741-.17278.225-.39781.53576-.56992a3.45682,3.45682,0,0,1,1.93548-.31144,2.973,2.973,0,0,1,2.14375,1.00257l2.35-1.53833A5.61788,5.61788,0,0,0,78.93366.03483c-.2277-.02142-.45473-.03215-.6791-.03215a5.9832,5.9832,0,0,0-2.88109.68915M27.0529,1.36555H27.225V11.42332h6.32612v.19087H27.0529ZM25.7041,0V12.96165h9.1945V10.07586H28.57315V0ZM43.55734,10.36919a4.2239,4.2239,0,0,0,.98448-2.7994V1.089h.15537V7.56979A4.30475,4.30475,0,0,1,43.66047,10.473a3.66152,3.66152,0,0,1-2.81681,1.05413A3.9185,3.9185,0,0,1,37.95786,10.473a4.2757,4.2757,0,0,1-1.089-2.83423V1.089h.15537V7.63877A4.25591,4.25591,0,0,0,38.061,10.36919a3.71992,3.71992,0,0,0,2.78266,1.02,3.55639,3.55639,0,0,0,2.71368-1.02M43.1247,0V7.70842a2.733,2.733,0,0,1-.6215,1.79683,2.271,2.271,0,0,1-1.71179.57061,2.09459,2.09459,0,0,1-2.125-1.03672A3.00916,3.00916,0,0,1,38.33758,7.76V0H35.45112V7.72516A5.61961,5.61961,0,0,0,36.93788,11.493a5.15646,5.15646,0,0,0,3.85353,1.46868A5.12963,5.12963,0,0,0,44.61147,11.493a5.742,5.742,0,0,0,1.3997-3.88836V0Zm5.21908,6.48083a5.16106,5.16106,0,0,1,7.96759-4.33773l-.13863.12122a4.986,4.986,0,1,0,0,8.41564l.13863.13863a5.30666,5.30666,0,0,1-2.81681.813,5.14192,5.14192,0,0,1-5.15078-5.15078m-1.33072,0a6.4853,6.4853,0,0,0,11.286,4.35582L56.225,8.95207a3.79415,3.79415,0,0,1-2.73042,1.19277,3.66405,3.66405,0,0,1,0-7.328A3.72708,3.72708,0,0,1,56.225,4.00958l2.0741-1.8839a6.48487,6.48487,0,0,0-11.286,4.35515M68.58188,1.34814h.18954L64.91787,6.53307v5.08113h-.17278V6.53307L61.40992,1.34814h.18952l3.232,5.01147ZM67.90816,0,64.91787,4.00958,62.32542,0H58.90317l4.51119,6.94761v6.014h2.86905V6.9992L71.48509,0ZM91.35955,1.31331h.294l-4.1308,4.321,5.68587,6.014H92.9327L87.38479,5.80711,85.39707,7.88053v3.76782h-.138V1.34814h.138V7.5872ZM90.78894,0,87.38479,3.595l-.67442.70789V.01741H83.9458V12.96165h2.76457V8.41631l.67442-.70789,4.99471,5.25324h3.88836L89.33767,5.6343,94.71212,0Zm14.34462,1.34814h.1902l-3.85421,5.18493v5.08113h-.17278V6.53307L97.96092,1.34814h.19087l3.232,5.01147ZM104.45916,0l-2.98962,4.00958L98.87775,0H95.45552l4.51119,6.94761v6.014h2.86838V6.9992L108.03743,0Z"/></clipPath></defs><title>logo-horizontal</title><polygon class="cls-1" points="20.851 44.585 19.273 47.741 22.429 47.741 20.851 44.585"/><g class="cls-2"><rect class="cls-1" x="17.23947" y="6.6136" width="4.3587" height="4.35865" transform="translate(2.98126 57.78519) rotate(-57.4001)"/></g><polygon class="cls-1" points="20.851 51.152 22.429 47.996 19.273 47.996 20.851 51.152"/><g class="cls-3"><rect class="cls-1" x="17.2395" y="10.02441" width="4.35867" height="4.35864" transform="translate(0.10781 59.35837) rotate(-57.4001)"/></g><polygon class="cls-1" points="18.972 54.91 20.566 51.722 17.378 53.316 15.784 56.504 18.972 54.91"/><g class="cls-4"><rect class="cls-1" x="13.43991" y="13.44008" width="6.6052" height="6.60532" transform="matrix(0.53877, -0.84245, 0.84245, 0.53877, -4.9505, 59.19717)"/></g><polygon class="cls-1" points="12.058 55.211 12.058 58.367 15.214 56.789 12.058 55.211"/><g class="cls-5"><rect class="cls-1" x="10.02402" y="17.23928" width="4.35894" height="4.35911" transform="translate(-9.29851 56.60754) rotate(-57.39993)"/></g><polygon class="cls-1" points="3.01 44.585 1.432 47.741 4.588 47.741 3.01 44.585"/><g class="cls-6"><rect class="cls-1" x="-0.60152" y="6.61358" width="4.35871" height="4.35868" transform="translate(-5.24754 42.75496) rotate(-57.39987)"/></g><polygon class="cls-1" points="6.483 42.421 8.078 39.233 4.889 40.827 3.295 44.016 6.483 42.421"/><g class="cls-7"><rect class="cls-1" x="0.95136" y="0.95135" width="6.60561" height="6.60561" transform="translate(-0.18945 42.91625) rotate(-57.40001)"/></g><polygon class="cls-1" points="3.01 51.152 4.588 47.996 1.432 47.996 3.01 51.152"/><g class="cls-8"><rect class="cls-1" x="-0.6015" y="10.02439" width="4.35868" height="4.35868" transform="translate(-8.12098 44.32812) rotate(-57.39987)"/></g><polygon class="cls-1" points="3.295 51.722 4.889 54.91 8.078 56.504 6.483 53.316 3.295 51.722"/><g class="cls-9"><rect class="cls-1" x="0.95157" y="13.44007" width="6.60521" height="6.60534" transform="matrix(0.53877, -0.84245, 0.84245, 0.53877, -10.71049, 48.67637)"/></g><polygon class="cls-1" points="11.803 55.211 8.647 56.789 11.803 58.367 11.803 55.211"/><g class="cls-10"><rect class="cls-1" x="6.61357" y="17.23948" width="4.35871" height="4.3587" transform="translate(-10.87156 53.73436) rotate(-57.40008)"/></g><polygon class="cls-1" points="12.058 37.37 12.058 40.526 15.214 38.948 12.058 37.37"/><g class="cls-11"><rect class="cls-1" x="10.02403" y="-0.60173" width="4.35894" height="4.35911" transform="translate(5.73168 48.37877) rotate(-57.39993)"/></g><polygon class="cls-1" points="11.803 37.37 8.647 38.948 11.803 40.526 11.803 37.37"/><g class="cls-12"><rect class="cls-1" x="6.61358" y="-0.6015" width="4.35868" height="4.35869" transform="translate(4.15862 45.50554) rotate(-57.39998)"/></g><polygon class="cls-1" points="15.784 39.233 17.378 42.421 20.566 44.016 18.972 40.827 15.784 39.233"/><g class="cls-13"><rect class="cls-1" x="13.4397" y="0.95135" width="6.60561" height="6.6056" transform="translate(5.57053 53.43706) rotate(-57.39994)"/></g><polygon class="cls-1" points="15.404 45.989 16.998 42.801 13.81 44.396 12.216 47.584 15.404 45.989"/><g class="cls-14"><rect class="cls-1" x="9.8716" y="4.51947" width="6.60559" height="6.60559" transform="translate(0.91886 52.07682) rotate(-57.39994)"/></g><polygon class="cls-1" points="12.216 48.153 13.81 51.342 16.998 52.936 15.404 49.748 12.216 48.153"/><g class="cls-15"><rect class="cls-1" x="9.8716" y="9.87162" width="6.60561" height="6.60559" transform="translate(-3.59007 54.54542) rotate(-57.40005)"/></g><polygon class="cls-1" points="6.863 42.801 8.457 45.989 11.646 47.584 10.052 44.396 6.863 42.801"/><g class="cls-16"><rect class="cls-1" x="4.51947" y="4.51945" width="6.60558" height="6.60559" transform="translate(-1.54969 47.56789) rotate(-57.39994)"/></g><polygon class="cls-1" points="10.052 51.342 11.646 48.153 8.457 49.748 6.863 52.936 10.052 51.342"/><g class="cls-17"><rect class="cls-1" x="4.51946" y="9.87162" width="6.60559" height="6.6056" transform="translate(-6.05864 50.03648) rotate(-57.40001)"/></g><rect class="cls-1" x="14.87557" y="5.95501" width="3.73413" height="3.73447" transform="translate(3.69169 56.67014) rotate(-63.4384)"/><g class="cls-18"><rect class="cls-1" x="13.28246" y="4.36222" width="6.92008" height="6.92008" transform="translate(2.56458 55.08278) rotate(-57.39999)"/></g><rect class="cls-1" x="11.3071" y="2.38685" width="3.73436" height="3.73436" transform="translate(0.92047 43.70935) rotate(-26.55815)"/><g class="cls-19"><rect class="cls-1" x="9.71437" y="0.7941" width="6.92009" height="6.9201" transform="translate(3.92483 50.43111) rotate(-57.39995)"/></g><rect class="cls-1" x="14.8754" y="11.30735" width="3.73447" height="3.73458" transform="translate(-2.69199 46.24859) rotate(-26.56505)"/><g class="cls-20"><rect class="cls-1" x="13.28226" y="9.71445" width="6.9205" height="6.92037" transform="matrix(0.53877, -0.84245, 0.84245, 0.53877, -1.94454, 57.55147)"/></g><rect class="cls-1" x="11.307" y="14.87551" width="3.73457" height="3.73447" transform="translate(-6.26029 58.40874) rotate(-63.43484)"/><g class="cls-21"><rect class="cls-1" x="9.71416" y="13.28258" width="6.92049" height="6.92036" transform="translate(-6.59623 56.19124) rotate(-57.40001)"/></g><rect class="cls-1" x="2.38657" y="5.95513" width="3.7347" height="3.73425" transform="translate(-1.6171 40.09884) rotate(-26.5685)"/><g class="cls-22"><rect class="cls-1" x="0.79374" y="4.36199" width="6.92035" height="6.92052" transform="translate(-3.19551 44.56173) rotate(-57.39992)"/></g><rect class="cls-1" x="5.95478" y="2.38673" width="3.73447" height="3.73458" transform="translate(1.95131 46.71796) rotate(-63.43495)"/><g class="cls-23"><rect class="cls-1" x="4.36183" y="0.79389" width="6.92035" height="6.92053" transform="translate(1.45614 45.92197) rotate(-57.39992)"/></g><rect class="cls-1" x="2.38657" y="11.3073" width="3.7347" height="3.7347" transform="translate(-7.99993 48.45776) rotate(-63.43495)"/><g class="cls-24"><rect class="cls-1" x="0.79351" y="9.71425" width="6.9208" height="6.9208" transform="translate(-7.70465 47.03041) rotate(-57.39994)"/></g><rect class="cls-1" x="5.95466" y="14.87541" width="3.7347" height="3.73468" transform="translate(-5.22949 42.63589) rotate(-26.56516)"/><g class="cls-25"><rect class="cls-1" x="4.36161" y="13.28236" width="6.92079" height="6.92079" transform="translate(-9.06491 51.68211) rotate(-57.40005)"/></g><polygon class="cls-1" points="15.499 46.227 12.47 47.741 18.527 47.741 15.499 46.227"/><g class="cls-26"><rect class="cls-1" x="11.7969" y="6.65474" width="4.53857" height="5.91811" transform="translate(-0.1791 53.65444) rotate(-57.40004)"/></g><polygon class="cls-1" points="12.058 41.272 12.058 47.329 13.572 44.3 12.058 41.272"/><g class="cls-27"><rect class="cls-1" x="8.42319" y="4.6606" width="5.91884" height="4.53927" transform="translate(0.84392 50.15589) rotate(-57.39988)"/></g><polygon class="cls-1" points="12.47 47.996 15.499 49.51 18.527 47.996 12.47 47.996"/><g class="cls-28"><rect class="cls-1" x="11.79691" y="8.42381" width="4.53855" height="5.91811" transform="translate(-1.66946 54.47039) rotate(-57.40004)"/></g><polygon class="cls-1" points="12.058 48.409 12.058 54.465 13.572 51.437 12.058 48.409"/><g class="cls-29"><rect class="cls-1" x="8.42344" y="11.79719" width="5.91837" height="4.53898" transform="matrix(0.53877, -0.84245, 0.84245, 0.53877, -5.16818, 53.44749)"/></g><polygon class="cls-1" points="8.362 46.227 5.334 47.741 11.391 47.741 8.362 46.227"/><g class="cls-30"><rect class="cls-1" x="4.6607" y="6.65474" width="4.53856" height="5.91812" transform="translate(-3.47053 47.64252) rotate(-57.40004)"/></g><polygon class="cls-1" points="11.803 41.272 10.289 44.3 11.803 47.329 11.803 41.272"/><g class="cls-31"><rect class="cls-1" x="6.65453" y="4.66081" width="5.91854" height="4.53885" transform="translate(0.02811 48.66578) rotate(-57.40003)"/></g><polygon class="cls-1" points="8.362 49.51 11.391 47.996 5.334 47.996 8.362 49.51"/><g class="cls-32"><rect class="cls-1" x="4.66069" y="8.42382" width="4.53857" height="5.91812" transform="translate(-4.9609 48.45848) rotate(-57.40004)"/></g><polygon class="cls-1" points="11.803 48.409 10.289 51.437 11.803 54.465 11.803 48.409"/><g class="cls-33"><rect class="cls-1" x="6.65474" y="11.79738" width="5.91814" height="4.53858" transform="translate(-5.984 51.95734) rotate(-57.4001)"/></g><path class="cls-1" d="M32.9451,18.65266l.39.885h-.798Zm-.019-1.67-1.73,3.731a.04246.04246,0,0,0,.002.041.04112.04112,0,0,0,.036.02h.703a.04389.04389,0,0,0,.039-.024l.227-.486h1.453l.216.485a.043.043,0,0,0,.039.025h.698a.04193.04193,0,0,0,.035-.019.04028.04028,0,0,0,.003-.041l-1.644-3.732a.04311.04311,0,0,0-.039-.025.04067.04067,0,0,0-.038.025m20.447,2.148h.57a1.31217,1.31217,0,0,1,.522.087.48969.48969,0,0,1,.199.151.34645.34645,0,0,1,.081.223.38616.38616,0,0,1-.15.297v.001a.69587.69587,0,0,1-.482.165h-.74Zm0-1.447h.479a.57487.57487,0,0,1,.414.131.30838.30838,0,0,1,.111.24.28228.28228,0,0,1-.055.166.44281.44281,0,0,1-.163.135.51523.51523,0,0,1-.129.037,1.20677,1.20677,0,0,1-.195.011h-.462Zm-.683-.726a.04249.04249,0,0,0-.043.042v3.733a.04247.04247,0,0,0,.043.042h1.423a1.56816,1.56816,0,0,0,.53-.09,1.3109,1.3109,0,0,0,.44-.261,1.17569,1.17569,0,0,0,.282-.383,1.05681,1.05681,0,0,0-.129-1.109v-.001a1.29721,1.29721,0,0,0-.322-.29.17961.17961,0,0,0,.017-.029.978.978,0,0,0,.171-.557,1.00531,1.00531,0,0,0-.091-.42,1.113,1.113,0,0,0-.257-.354,1.30193,1.30193,0,0,0-.902-.323Zm4.991,0a.04249.04249,0,0,0-.043.042v3.733a.04247.04247,0,0,0,.043.042h.641a.04225.04225,0,0,0,.042-.042v-3.733a.04227.04227,0,0,0-.042-.042Zm11.833,2.173h.57a1.32435,1.32435,0,0,1,.523.087.48937.48937,0,0,1,.198.151.34776.34776,0,0,1,.082.223.39072.39072,0,0,1-.151.297l-.001.001a.68818.68818,0,0,1-.481.165h-.74Zm0-1.447h.479a.5765.5765,0,0,1,.414.131.30828.30828,0,0,1,.111.24.28361.28361,0,0,1-.054.166.45514.45514,0,0,1-.164.135.52842.52842,0,0,1-.129.037,1.21559,1.21559,0,0,1-.195.011h-.462Zm-.684-.726a.04225.04225,0,0,0-.042.042v3.733a.04223.04223,0,0,0,.042.042h1.424a1.58682,1.58682,0,0,0,.531-.09,1.31624,1.31624,0,0,0,.439-.261,1.19333,1.19333,0,0,0,.283-.383,1.07886,1.07886,0,0,0,.1-.449,1.06541,1.06541,0,0,0-.231-.66v-.001a1.27167,1.27167,0,0,0-.32-.29.28669.28669,0,0,0,.016-.029.97462.97462,0,0,0,.172-.557,1.01874,1.01874,0,0,0-.092-.42,1.12549,1.12549,0,0,0-.256-.354,1.3062,1.3062,0,0,0-.903-.323Zm12.977,0a.04225.04225,0,0,0-.042.042v2.274a.87406.87406,0,0,1-.059.316.783.783,0,0,1-.173.262.77191.77191,0,0,1-1.114-.001.75344.75344,0,0,1-.171-.261.83024.83024,0,0,1-.06-.316v-2.274a.04249.04249,0,0,0-.043-.042h-.641a.04227.04227,0,0,0-.042.042v2.274a1.53647,1.53647,0,0,0,.443,1.085,1.45667,1.45667,0,0,0,.488.333,1.51341,1.51341,0,0,0,1.167,0,1.55475,1.55475,0,0,0,.494-.333,1.64328,1.64328,0,0,0,.323-.501,1.53351,1.53351,0,0,0,.113-.584v-2.274a.04227.04227,0,0,0-.042-.042Zm2.802,0a.04313.04313,0,0,0-.043.042v.641a.04332.04332,0,0,0,.043.043h1.075v3.049a.04223.04223,0,0,0,.042.042h.635a.04333.04333,0,0,0,.044-.042v-3.049h1.079a.0427.0427,0,0,0,.043-.043v-.641a.04249.04249,0,0,0-.043-.042Zm5.098,0a.04227.04227,0,0,0-.042.042v3.733a.04225.04225,0,0,0,.042.042h.641a.04247.04247,0,0,0,.043-.042v-3.733a.04249.04249,0,0,0-.043-.042Zm11.315,0a.04315.04315,0,0,0-.043.042v2.274a.84175.84175,0,0,1-.059.316.78474.78474,0,0,1-.172.262.7514.7514,0,0,1-.253.175.76476.76476,0,0,1-.301.062.79665.79665,0,0,1-.731-.499.83024.83024,0,0,1-.06-.316v-2.274a.04227.04227,0,0,0-.042-.042h-.642a.04227.04227,0,0,0-.042.042v2.274a1.548,1.548,0,0,0,.443,1.085,1.47153,1.47153,0,0,0,.488.333,1.51349,1.51349,0,0,0,1.167,0,1.54925,1.54925,0,0,0,.494-.333,1.65492,1.65492,0,0,0,.323-.501,1.53351,1.53351,0,0,0,.113-.584v-2.274a.04227.04227,0,0,0-.042-.042Zm2.989,0a.04313.04313,0,0,0-.043.042v3.733a.04311.04311,0,0,0,.043.042h2.359a.04248.04248,0,0,0,.043-.042v-.636a.04248.04248,0,0,0-.043-.042h-1.676v-.828h1.251a.04268.04268,0,0,0,.043-.043v-.641a.04184.04184,0,0,0-.043-.042h-1.251v-.817h1.676a.0427.0427,0,0,0,.043-.043v-.641a.0425.0425,0,0,0-.043-.042Zm-55.122,1.695.389.885h-.799Zm-.021-1.67-1.73,3.731a.04329.04329,0,0,0,.039.061h.703a.04637.04637,0,0,0,.039-.024l.226-.486h1.454l.216.485a.04306.04306,0,0,0,.039.025h.697a.04217.04217,0,0,0,.039-.06l-1.644-3.732a.04421.04421,0,0,0-.039-.025h-.005a.04.04,0,0,0-.034.025m25.976,2.941a1.23341,1.23341,0,0,1,0-2.116,1.20429,1.20429,0,0,1,1.21,0,1.22862,1.22862,0,0,1,0,2.116,1.1916,1.1916,0,0,1-1.21,0m-.361-2.739a1.95541,1.95541,0,0,0-.704.707,1.94965,1.94965,0,0,0,0,1.949,1.95517,1.95517,0,0,0,.704.707,1.91806,1.91806,0,0,0,1.932,0,1.95523,1.95523,0,0,0,.704-.707,1.94985,1.94985,0,0,0,0-1.949,1.94794,1.94794,0,0,0-.704-.707,1.91825,1.91825,0,0,0-1.932,0m19.403,2.739a1.22687,1.22687,0,0,1,0-2.116,1.19494,1.19494,0,0,1,.609-.163,1.17432,1.17432,0,0,1,.604.163,1.23044,1.23044,0,0,1,.421,1.698l-.808-.867a.04236.04236,0,0,0-.059-.003l-.472.438a.044.044,0,0,0-.013.03.0414.0414,0,0,0,.012.03l.794.849a1.13723,1.13723,0,0,1-.479.106,1.18692,1.18692,0,0,1-.609-.165m-.358-2.739a1.95573,1.95573,0,0,0-.704.707,1.94985,1.94985,0,0,0,0,1.949,1.96308,1.96308,0,0,0,.704.707,1.91454,1.91454,0,0,0,1.957-.016l.22.229a.04307.04307,0,0,0,.032.014h.873a.04263.04263,0,0,0,.031-.071l-.616-.655a2.07281,2.07281,0,0,0,.285-.536,1.948,1.948,0,0,0-.85-2.328,1.91825,1.91825,0,0,0-1.932,0m-66.629-.006a1.93461,1.93461,0,0,0-.701.708,1.96754,1.96754,0,0,0,0,1.948,1.95584,1.95584,0,0,0,.701.71,1.86577,1.86577,0,0,0,.966.264,1.92453,1.92453,0,0,0,1.502-.725.04378.04378,0,0,0-.006-.06l-.5-.397a.04174.04174,0,0,0-.059.007,1.25878,1.25878,0,0,1-.42.334,1.14231,1.14231,0,0,1-.517.121,1.16493,1.16493,0,0,1-.602-.167,1.23552,1.23552,0,0,1-.441-1.673,1.20911,1.20911,0,0,1,.438-.446,1.18315,1.18315,0,0,1,1.09-.06,1.20814,1.20814,0,0,1,.408.296.04262.04262,0,0,0,.06.002l.471-.424a.04382.04382,0,0,0,.003-.061,1.86469,1.86469,0,0,0-.647-.472,1.91073,1.91073,0,0,0-.78-.166,1.882,1.882,0,0,0-.966.261m34.606-.188a1.525,1.525,0,0,0-.453.225,1.23252,1.23252,0,0,0-.338.385.96646.96646,0,0,0-.121.466,1.021,1.021,0,0,0,.177.573,1.17491,1.17491,0,0,0,.494.412,2.326,2.326,0,0,0,.716.169,1.705,1.705,0,0,1,.518.114.57658.57658,0,0,1,.185.153.28712.28712,0,0,1,.065.173.34867.34867,0,0,1-.169.265.88313.88313,0,0,1-.251.119,1.04433,1.04433,0,0,1-.594,0,.85254.85254,0,0,1-.252-.12.47053.47053,0,0,1-.115-.109.24639.24639,0,0,1-.054-.141.04615.04615,0,0,0-.022-.035.04543.04543,0,0,0-.041.001l-.568.323a.04058.04058,0,0,0-.018.051,1.06812,1.06812,0,0,0,.388.496,1.525,1.525,0,0,0,.453.225,1.78771,1.78771,0,0,0,1.051,0,1.51269,1.51269,0,0,0,.453-.225,1.19364,1.19364,0,0,0,.344-.385.96082.96082,0,0,0-.048-1.011,1.29876,1.29876,0,0,0-.46-.416h-.001a2.38569,2.38569,0,0,0-.762-.192c-.109-.015-.205-.031-.288-.045a.97563.97563,0,0,1-.207-.06.4689.4689,0,0,1-.203-.148.31058.31058,0,0,1-.071-.187.349.349,0,0,1,.17-.266.87106.87106,0,0,1,.251-.119,1.05292,1.05292,0,0,1,.594,0,.88952.88952,0,0,1,.25.118.35773.35773,0,0,1,.17.263.04229.04229,0,0,0,.022.035.04467.04467,0,0,0,.042,0l.572-.329a.0423.0423,0,0,0,.019-.052,1.11965,1.11965,0,0,0-.394-.502,1.53469,1.53469,0,0,0-.453-.224,1.80911,1.80911,0,0,0-1.051,0m-24.769-.086a.04039.04039,0,0,0-.026.039v3.789a.04223.04223,0,0,0,.042.042h.636a.04225.04225,0,0,0,.042-.042v-2.115l2.23,2.23a.04237.04237,0,0,0,.03.012l.017-.003a.0454.0454,0,0,0,.026-.04v-3.817a.04247.04247,0,0,0-.043-.042h-.634a.04271.04271,0,0,0-.044.042v2.144l-2.23-2.23a.04109.04109,0,0,0-.029-.013.03286.03286,0,0,0-.017.004m5.349,0a.04126.04126,0,0,0-.027.039v3.789a.0431.0431,0,0,0,.043.042h.635a.04247.04247,0,0,0,.043-.042v-2.115l2.23,2.23a.04237.04237,0,0,0,.03.012l.016-.003a.04373.04373,0,0,0,.026-.04v-3.817a.04227.04227,0,0,0-.042-.042h-.636a.04225.04225,0,0,0-.042.042v2.144l-2.23-2.23a.04339.04339,0,0,0-.03-.013.03165.03165,0,0,0-.016.004" transform="translate(1.43233 37.37017)"/><g class="cls-34"><rect class="cls-1" x="42.83068" y="-16.08366" width="46.69182" height="69.92767" transform="translate(16.04926 101.82889) rotate(-57.4)"/></g><path class="cls-1" d="M80.43784,10.95654a2.08817,2.08817,0,0,0,1.2095-1.60666,2.23734,2.23734,0,0,0-.67439-1.78009,4.47506,4.47506,0,0,0-2.73042-1.00257c-1.74529-.17278-3.733-1.05413-3.54279-2.97218A2.26225,2.26225,0,0,1,76.013,1.84909a4.61892,4.61892,0,0,1,2.22949-.51837c.18952,0,.38039,0,.55318.01741a5.02714,5.02714,0,0,1,2.28105.76013l-.17278.1038a4.89045,4.89045,0,0,0-2.12568-.67374,5.20538,5.20538,0,0,0-.53576-.03483,4.50426,4.50426,0,0,0-2.14309.50163,2.15186,2.15186,0,0,0-1.22692,1.60664C74.73388,5.08045,76.0646,6.17009,78.25994,6.377c1.86581.1902,3.75038,1.05413,3.5776,2.9896A2.36655,2.36655,0,0,1,80.52423,11.13a4.92069,4.92069,0,0,1-2.26429.51835c-.1728,0-.363-.01674-.53578-.03415a5.4011,5.4011,0,0,1-2.28105-.74339l.1728-.12122a4.939,4.939,0,0,0,2.644.70857,4.54951,4.54951,0,0,0,2.1779-.50161M75.37347.69183a3.56981,3.56981,0,0,0-1.987,2.782c-.225,2.33329,1.67629,4.11338,4.73489,4.42412,2.16116.20761,2.24688,1.07155,2.21273,1.33072-.01741.1902-.225.39715-.53576.57061a3.42335,3.42335,0,0,1-1.93616.32815,2.8873,2.8873,0,0,1-2.125-1.02L73.369,10.64578a5.60205,5.60205,0,0,0,4.23393,2.28173c.225.01741.45.03415.657.03415a6.23468,6.23468,0,0,0,2.88579-.67372,3.66324,3.66324,0,0,0,2.00512-2.78268c.22437-2.40225-1.64214-4.13012-4.73554-4.4248-.82911-.08572-2.31588-.46611-2.22949-1.34746.01741-.17278.225-.39781.53576-.56992a3.45682,3.45682,0,0,1,1.93548-.31144,2.973,2.973,0,0,1,2.14375,1.00257l2.35-1.53833A5.61788,5.61788,0,0,0,78.93366.03483c-.2277-.02142-.45473-.03215-.6791-.03215a5.9832,5.9832,0,0,0-2.88109.68915M27.0529,1.36555H27.225V11.42332h6.32612v.19087H27.0529ZM25.7041,0V12.96165h9.1945V10.07586H28.57315V0ZM43.55734,10.36919a4.2239,4.2239,0,0,0,.98448-2.7994V1.089h.15537V7.56979A4.30475,4.30475,0,0,1,43.66047,10.473a3.66152,3.66152,0,0,1-2.81681,1.05413A3.9185,3.9185,0,0,1,37.95786,10.473a4.2757,4.2757,0,0,1-1.089-2.83423V1.089h.15537V7.63877A4.25591,4.25591,0,0,0,38.061,10.36919a3.71992,3.71992,0,0,0,2.78266,1.02,3.55639,3.55639,0,0,0,2.71368-1.02M43.1247,0V7.70842a2.733,2.733,0,0,1-.6215,1.79683,2.271,2.271,0,0,1-1.71179.57061,2.09459,2.09459,0,0,1-2.125-1.03672A3.00916,3.00916,0,0,1,38.33758,7.76V0H35.45112V7.72516A5.61961,5.61961,0,0,0,36.93788,11.493a5.15646,5.15646,0,0,0,3.85353,1.46868A5.12963,5.12963,0,0,0,44.61147,11.493a5.742,5.742,0,0,0,1.3997-3.88836V0Zm5.21908,6.48083a5.16106,5.16106,0,0,1,7.96759-4.33773l-.13863.12122a4.986,4.986,0,1,0,0,8.41564l.13863.13863a5.30666,5.30666,0,0,1-2.81681.813,5.14192,5.14192,0,0,1-5.15078-5.15078m-1.33072,0a6.4853,6.4853,0,0,0,11.286,4.35582L56.225,8.95207a3.79415,3.79415,0,0,1-2.73042,1.19277,3.66405,3.66405,0,0,1,0-7.328A3.72708,3.72708,0,0,1,56.225,4.00958l2.0741-1.8839a6.48487,6.48487,0,0,0-11.286,4.35515M68.58188,1.34814h.18954L64.91787,6.53307v5.08113h-.17278V6.53307L61.40992,1.34814h.18952l3.232,5.01147ZM67.90816,0,64.91787,4.00958,62.32542,0H58.90317l4.51119,6.94761v6.014h2.86905V6.9992L71.48509,0ZM91.35955,1.31331h.294l-4.1308,4.321,5.68587,6.014H92.9327L87.38479,5.80711,85.39707,7.88053v3.76782h-.138V1.34814h.138V7.5872ZM90.78894,0,87.38479,3.595l-.67442.70789V.01741H83.9458V12.96165h2.76457V8.41631l.67442-.70789,4.99471,5.25324h3.88836L89.33767,5.6343,94.71212,0Zm14.34462,1.34814h.1902l-3.85421,5.18493v5.08113h-.17278V6.53307L97.96092,1.34814h.19087l3.232,5.01147ZM104.45916,0l-2.98962,4.00958L98.87775,0H95.45552l4.51119,6.94761v6.014h2.86838V6.9992L108.03743,0Z" transform="translate(1.43233 37.37017)"/><g class="cls-35"><rect class="cls-1" x="39.23155" y="-31.69179" width="55.2784" height="76.34526" transform="translate(26.81528 96.69475) rotate(-57.4)"/></g></svg>